<?xml version="1.0" encoding="UTF-8"?><svg id="Layer_1" xmlns="http://www.w3.org/2000/svg" viewBox="0 0 718.2821 122.31691"><defs><style>.cls-1{fill:#fff;}</style></defs><path class="cls-1" d="M31.17075,114.59584c-.21805-.12058-.43094-.24921-.64744-.37243l.64744.37243Z"/><path class="cls-1" d="M100.1798,13.94881C52.488-23.89559-15.23406,20.95913,3.06017,80.34852l.0001-.00005c.80731,2.54238,1.78109,5.00989,2.90639,7.39226l-.0001-.00005c5.23117,11.07091,13.90449,20.44129,24.55675,26.48274l-.0001-.00005c.2165.12326.42939.2519.64754.37248,67.26844,33.79189,123.99876-51.34416,69.00905-100.64703ZM37.21272,46.17885l16.86612,16.8746-7.16893,7.17318-9.69719-9.70142-26.1134,26.12589c-1.64938-3.29352-2.98045-6.77181-3.94309-10.40071l30.05649-30.07155ZM26.2219,105.20152l58.99407-59.02267,29.8699,29.88466c-.95099,3.63808-2.27391,7.1254-3.91473,10.42883l-25.95517-25.96713-50.28077,50.30442c-3.08782-1.60234-6.00278-3.48923-8.7133-5.62812Z"/><rect class="cls-1" x="334.41677" y="14.8081" width="5.21267" height="91.73768"/><path class="cls-1" d="M164.57457,91.44996h-10.76105V29.99198h23.45564c6.95007,0,12.37302,1.68107,16.26883,5.04458,3.89445,3.36283,5.84304,8.07079,5.84304,14.12388,0,4.09218-.93872,7.58159-2.81615,10.46753-1.8788,2.88731-4.63885,5.08632-8.28152,6.59976l11.68608,25.22223h-11.76955l-10.42579-22.95207h-13.19953v22.95207ZM164.57457,39.57621v19.42093h12.69459c3.41825,0,6.08114-.86825,7.98731-2.60611,1.9048-1.73649,2.85857-4.14692,2.85857-7.23059,0-3.08162-.95377-5.45031-2.85857-7.10402-1.90617-1.65234-4.56907-2.48021-7.98731-2.48021h-12.69459Z"/><path class="cls-1" d="M219.23916,29.99198v61.45798h-10.76105V29.99198h10.76105ZM210.32681,91.44996v-9.92085h34.55468v9.92085h-34.55468Z"/><path class="cls-1" d="M276.20812,92.45915c-5.99904,0-11.1962-1.30339-15.59695-3.9095-4.40075-2.60679-7.81763-6.27682-10.25611-11.0142-2.43848-4.73533-3.65772-10.32658-3.65772-16.7724,0-6.38971,1.24661-11.96592,3.74119-16.73067,2.49321-4.76338,6.01135-8.46283,10.55168-11.09767,4.54033-2.63416,9.77991-3.95192,15.72147-3.95192,4.87696,0,9.24897.89767,13.11605,2.69026,3.86708,1.79465,7.06228,4.30223,9.58423,7.5248,2.52195,3.22394,4.12023,7.04928,4.79211,11.47603h-11.34946c-1.06598-3.58588-3.04194-6.37535-5.92788-8.36499-2.88731-1.98896-6.40408-2.98515-10.55168-2.98515-3.69877,0-6.93502.86961-9.71012,2.60679-2.77373,1.73786-4.91801,4.20371-6.43145,7.39822-1.51344,3.1952-2.27017,7.00686-2.27017,11.4343,0,4.25981.75672,8.00168,2.27017,11.22356,1.51344,3.22394,3.65772,5.71715,6.43145,7.48306,2.7751,1.76523,6.01135,2.64784,9.71012,2.64784,4.20371,0,7.80532-1.00851,10.80484-3.0262,2.99678-2.0177,5.00148-4.73601,6.00998-8.15563h11.18251c-.78546,4.26049-2.47953,8.01605-5.08632,11.26599-2.60679,3.2513-5.88546,5.77394-9.83738,7.56653-3.95055,1.79328-8.36499,2.69095-13.24058,2.69095Z"/><path class="cls-1" d="M375.74189,91.65074h-6.16813V30.31663h6.16813v27.32645h33.1509v-27.32645h6.08168v61.33411h-6.08168v-28.26826h-33.1509v28.26826Z"/><path class="cls-1" d="M438.72817,92.67899c-4.39883,0-7.83843-1.14188-10.32297-3.42705-2.48315-2.28307-3.72542-5.22492-3.72542-8.82276,0-3.8258,1.37054-6.88128,4.11162-9.16575,2.74108-2.28377,6.5376-3.62642,11.39235-4.02657l13.70679-1.1133v-1.37054c0-2.74108-.48659-4.89658-1.45698-6.46789-.97179-1.56992-2.28377-2.66858-3.94013-3.29808-1.65636-.62741-3.5121-.94181-5.5686-.94181-3.65431,0-6.48183.77102-8.47978,2.31235-1.99934,1.54203-2.99901,3.71356-2.99901,6.51041h-5.39572c0-2.79685.71246-5.22492,2.14156-7.28073,1.42631-2.05651,3.42565-3.65431,5.99664-4.79759,2.56959-1.14188,5.53793-1.71283,8.90781-1.71283,3.25556,0,6.11096.5563,8.56622,1.6703,2.45526,1.1133,4.41138,2.82683,5.86837,5.13987,1.45559,2.31235,2.18478,5.29742,2.18478,8.95173v26.81197h-4.96908l-.77102-7.28143c-1.25621,2.62745-3.24161,4.66862-5.95341,6.12491-2.7132,1.45629-5.8112,2.18478-9.29402,2.18478ZM440.09872,87.88141c4.39605,0,7.79521-1.39842,10.1933-4.19737,2.39949-2.79755,3.59854-6.42467,3.59854-10.87927v-2.2266l-12.24981.94181c-3.88436.34298-6.6826,1.31477-8.39473,2.91257-1.71352,1.59989-2.57098,3.54138-2.57098,5.82514,0,2.51382.85746,4.41138,2.57098,5.69618,1.71213,1.28549,3.9959,1.92754,6.8527,1.92754Z"/><path class="cls-1" d="M491.4863,49.67638v5.31067h-3.25556c-3.8258,0-6.86664,1.17116-9.12253,3.5121-2.25728,2.34233-3.38383,5.51214-3.38383,9.50873v23.64286h-5.91019v-41.46058h5.56721l.51448,8.13819h-.59952c.57025-2.68392,1.97006-4.868,4.19667-6.55364,2.228-1.68355,4.9398-2.52706,8.13819-2.52706.62741,0,1.25621.02998,1.88502.08575.62741.05786,1.2841.17149,1.97006.34298Z"/><path class="cls-1" d="M512.97715,92.67899c-3.99729,0-7.42434-.94251-10.27975-2.82683-2.85541-1.88502-5.05273-4.46785-6.59477-7.75268-1.54203-3.28344-2.31305-6.98167-2.31305-11.09329,0-4.16809.77102-7.90884,2.31305-11.22156,1.54203-3.31133,3.7533-5.92414,6.63799-7.83843,2.88329-1.9129,6.38145-2.86935,10.49446-2.86935,3.42565,0,6.4665.74243,9.12253,2.2273,2.65603,1.48557,4.6972,3.74075,6.12491,6.76695v-28.86848h5.91019v62.44811h-5.13918l-.59952-8.48048c-1.48626,3.19909-3.59854,5.58255-6.33962,7.15246-2.74108,1.57061-5.85442,2.35627-9.33724,2.35627ZM514.0061,87.28188c3.08267,0,5.68154-.69852,7.79521-2.09833,2.11088-1.39912,3.73936-3.3413,4.88264-5.82514,1.14188-2.48454,1.71213-5.32461,1.71213-8.5237,0-3.19769-.57025-6.02452-1.71213-8.48048-1.14328-2.45456-2.77175-4.39674-4.88264-5.82514-2.11367-1.42701-4.71254-2.14156-7.79521-2.14156-2.97113,0-5.52538.71455-7.66694,2.14156-2.14156,1.4284-3.77003,3.37058-4.88264,5.82514-1.114,2.45596-1.6703,5.28278-1.6703,8.48048,0,3.19909.5563,6.03916,1.6703,8.5237,1.11261,2.48384,2.74108,4.42602,4.88264,5.82514,2.14156,1.39982,4.69581,2.09833,7.66694,2.09833Z"/><path class="cls-1" d="M562.67909,92.67899c-3.99869,0-7.52473-.91462-10.57951-2.74178-3.05618-1.82646-5.43894-4.36816-7.15246-7.62372-1.71352-3.25486-2.56959-7.05208-2.56959-11.39305,0-4.28311.84212-8.06569,2.52637-11.35053,1.68424-3.28274,4.01123-5.85303,6.98236-7.70946,2.96834-1.85504,6.42467-2.7836,10.3648-2.7836,3.76864,0,7.06741.82818,9.89354,2.48384,2.82752,1.65706,5.02485,3.95547,6.59616,6.89592,1.56992,2.94185,2.35627,6.38214,2.35627,10.32227v2.91257h-35.46534l.17149-4.28311h29.38226c0-3.9966-1.18511-7.20893-3.55532-9.637-2.37021-2.42668-5.4961-3.64037-9.37907-3.64037-2.8568,0-5.35389.65669-7.49545,1.97006-2.14156,1.31407-3.78397,3.18375-4.92586,5.61043-1.14328,2.42807-1.71352,5.29812-1.71352,8.60945,0,5.48216,1.27015,9.73739,3.81186,12.76359,2.54031,3.0276,6.15279,4.54035,10.83605,4.54035,3.36988,0,6.13885-.71385,8.30968-2.14156,2.16944-1.42701,3.62642-3.5121,4.36955-6.25387h5.65365c-1.08611,4.34097-3.19979,7.66694-6.33962,9.97999-3.14123,2.31305-7.1678,3.46957-12.07832,3.46957Z"/><path class="cls-1" d="M595.2472,91.65074h-5.91019v-41.46058h5.13918l.85606,7.19568c1.37193-2.62606,3.32666-4.66862,5.86837-6.12491,2.54031-1.45629,5.32461-2.18408,8.3529-2.18408,5.70942,0,9.82104,1.57131,12.33486,4.71114,2.51242,3.14123,3.76864,7.31071,3.76864,12.50705v25.35569h-5.91019v-24.07089c0-4.85336-1.01501-8.25182-3.04084-10.194-2.02862-1.94079-4.75437-2.91257-8.18141-2.91257-4.22595,0-7.49545,1.41376-9.80849,4.24059s-3.46887,6.58222-3.46887,11.26408v21.6728Z"/><path class="cls-1" d="M653.60878,92.67899c-3.99869,0-7.52473-.91462-10.57951-2.74178-3.05618-1.82646-5.43894-4.36816-7.15246-7.62372-1.71352-3.25486-2.56959-7.05208-2.56959-11.39305,0-4.28311.84212-8.06569,2.52637-11.35053,1.68424-3.28274,4.01123-5.85303,6.98236-7.70946,2.96834-1.85504,6.42467-2.7836,10.3648-2.7836,3.76864,0,7.06741.82818,9.89354,2.48384,2.82752,1.65706,5.02485,3.95547,6.59616,6.89592,1.56992,2.94185,2.35627,6.38214,2.35627,10.32227v2.91257h-35.46534l.17149-4.28311h29.38226c0-3.9966-1.18511-7.20893-3.55532-9.637-2.37021-2.42668-5.4961-3.64037-9.37907-3.64037-2.8568,0-5.35389.65669-7.49545,1.97006-2.14156,1.31407-3.78397,3.18375-4.92586,5.61043-1.14328,2.42807-1.71352,5.29812-1.71352,8.60945,0,5.48216,1.27015,9.73739,3.81186,12.76359,2.54031,3.0276,6.15279,4.54035,10.83605,4.54035,3.36988,0,6.13885-.71385,8.30968-2.14156,2.16944-1.42701,3.62642-3.5121,4.36955-6.25387h5.65365c-1.08611,4.34097-3.19979,7.66694-6.33962,9.97999-3.14123,2.31305-7.1678,3.46957-12.07832,3.46957Z"/><path class="cls-1" d="M696.86654,92.67899c-3.99729,0-7.42434-.94251-10.27975-2.82683-2.85541-1.88502-5.05273-4.46785-6.59477-7.75268-1.54203-3.28344-2.31305-6.98167-2.31305-11.09329,0-4.16809.77102-7.90884,2.31305-11.22156,1.54203-3.31133,3.7533-5.92414,6.63799-7.83843,2.88329-1.9129,6.38145-2.86935,10.49446-2.86935,3.42565,0,6.4665.74243,9.12253,2.2273,2.65603,1.48557,4.6972,3.74075,6.12491,6.76695v-28.86848h5.91019v62.44811h-5.13918l-.59952-8.48048c-1.48626,3.19909-3.59854,5.58255-6.33962,7.15246-2.74108,1.57061-5.85442,2.35627-9.33724,2.35627ZM697.89549,87.28188c3.08267,0,5.68154-.69852,7.79521-2.09833,2.11088-1.39912,3.73936-3.3413,4.88264-5.82514,1.14188-2.48454,1.71213-5.32461,1.71213-8.5237,0-3.19769-.57025-6.02452-1.71213-8.48048-1.14328-2.45456-2.77175-4.39674-4.88264-5.82514-2.11367-1.42701-4.71254-2.14156-7.79521-2.14156-2.97113,0-5.52538.71455-7.66694,2.14156-2.14156,1.4284-3.77003,3.37058-4.88264,5.82514-1.114,2.45596-1.6703,5.28278-1.6703,8.48048,0,3.19909.5563,6.03916,1.6703,8.5237,1.11261,2.48384,2.74108,4.42602,4.88264,5.82514,2.14156,1.39982,4.69581,2.09833,7.66694,2.09833Z"/></svg>