<?xml version="1.0" encoding="UTF-8"?><svg id="a" xmlns="http://www.w3.org/2000/svg" viewBox="0 0 502.15267 444.66988"><path d="M229.83237,169.38568l10.46538-10.47097-42.10629-40.45072-54.73716,54.76641c.58384,2.35704,1.22879,4.71736,1.95653,7.07899.93079,2.932,2.04195,5.81801,3.23033,8.67116l49.76058-49.78358,31.43064,30.18871Z" fill="#fff"/><path d="M350.70221,188.20648c.60946-1.4246,1.25934-2.82095,1.81788-4.28038,1.43019-3.73761,2.57158-7.49494,3.58155-11.25686l-54.28212-54.31038-116.53525,116.59143c3.03024,2.17436,6.13112,4.24884,9.37294,6.08742l.96332.55722c.89662.44683,1.79455.83321,2.69183,1.25901l103.50716-103.55184,48.88269,48.90437Z" fill="#fff"/><path d="M249.77797,21.13822c68.63953,0,124.48195,55.84209,124.48195,124.48195s-55.84242,124.48195-124.48195,124.48195-124.48195-55.84209-124.48195-124.48195S181.13843,21.13822,249.77797,21.13822M249.77797,6.33496c-76.92497,0-139.28521,62.36057-139.28521,139.28521s62.36024,139.28521,139.28521,139.28521,139.28521-62.35991,139.28521-139.28521S326.70326,6.33496,249.77797,6.33496h0Z" fill="#fff"/><rect x="314.21687" y="302.39358" width="8.88885" height="135.94135" fill="#fff"/><path d="M73.98445,329.25826c-12.58063-13.10895-50.50018-7.44153-67.73914-8.60211v104.8006h18.35016v-39.13879h22.5083l17.7785,39.13879h20.06989l-19.92755-43.00995c21.57281-7.19513,25.03741-39.67651,8.95984-53.18854ZM64.73695,353.34237c.66418,21.45367-26.13287,16.23785-40.14148,16.77454v-33.11731c13.54773.61053,41.0589-4.75201,40.14148,16.34277Z" fill="#fff"/><polygon points="117.81165 320.65615 99.4615 320.65615 99.4615 425.45675 102.61396 425.45675 117.81165 425.45675 161.53797 425.45675 161.53797 408.53927 117.81165 408.53927 117.81165 320.65615" fill="#fff"/><path d="M198.68391,405.02755c-10.53009-6.78589-14.85333-18.91455-14.83832-31.89941.00623-13.3493,4.10712-25.23712,14.83801-32.11371,15.17218-9.45294,39.97803-3.82074,44.66003,14.9093h19.35358c-5.57819-44.30798-73.73566-49.44965-91.68237-11.32623-17.39288,34.24036.37994,84.43671,43.9425,82.58014,22.73944.49463,44.14392-13.92645,48.02686-36.70264h-19.06885c-4.83258,18.32611-30.23712,24.133-45.23145,14.55255Z" fill="#fff"/><path d="M415.84791,318.93527l-39.75867,108.24237h11.03564l10.58453-28.72302h49.888l10.58044,28.72302h11.33911l-40.21387-108.24237h-13.4552ZM401.03529,388.9302l20.10693-54.72711c.5127-1.16187,1.12695-3.23572,1.35742-4.38391.24622,1.21637,1.07336,3.03888,1.36151,4.38391l20.25867,54.72711h-43.08453Z" fill="#fff"/><rect x="482.42677" y="318.93527" width="10.88385" height="108.24237" fill="#fff"/></svg>