<?xml version="1.0" encoding="UTF-8"?><svg id="a" xmlns="http://www.w3.org/2000/svg" viewBox="0 0 720 720"><path d="M378.7568,7.69093C184.39932-2.28193,18.04971,146.99133,7.7107,341.22898c-5.0064,94.09634,26.92937,184.51778,89.92213,254.60737,62.99941,70.07628,149.51958,111.43233,243.61593,116.43873,6.42444.34619,12.81558.50597,19.20007.50597,87.13266,0,170.10441-31.72939,235.40064-90.43475,70.08294-62.99276,111.43899-149.51293,116.44539-243.60927C722.63387,184.48607,573.00777,18.0366,378.7568,7.69093ZM674.85338,376.7398c-4.4738,84.09686-41.43595,161.42976-104.0692,217.72512-62.63991,56.30868-143.4946,84.9357-227.5382,80.36869-84.10352-4.4738-161.4231-41.43595-217.72512-104.0692-56.30202-62.63325-84.84249-143.44134-80.36869-227.5382C54.09312,175.28548,193.57328,44.6797,359.82303,44.6797c5.61223,0,11.27106.14646,16.93654.45271,173.61288,9.25385,307.33435,158.00783,298.09381,331.6074Z" fill="#fff"/><polygon points="438.8802 243.40447 336.66843 234.72316 237.39925 138.60295 229.24388 285.10671 95.80202 354.69034 182.62178 425.85844 154.46744 496.62709 252.10971 513.69346 290.49238 482.35353 206.35558 467.62726 227.59949 414.24785 163.48162 361.69397 265.50033 308.48766 270.27372 222.61992 320.18459 270.93967 419.18747 279.35468 461.78847 335.02424 576.929 335.83645 546.37798 395.82004 424.06738 423.66148 297.08825 525.38393 247.57183 565.8146 238.2514 620.56211 440.79089 458.30683 571.82274 428.49479 637.88458 298.76779 480.40269 297.66266 438.8802 243.40447" fill="#fff"/><polygon points="402.27922 301.73036 365.9537 298.64463 346.95751 297.24989 376.15957 337.14464 431.65104 341.85811 402.27922 301.73036" fill="#fff"/></svg>