<?xml version="1.0" encoding="UTF-8"?><svg id="a" xmlns="http://www.w3.org/2000/svg" viewBox="0 0 1137.33017 221.90238"><path d="M113.87097,6.69087C56.35393,3.73956,7.12538,47.91463,4.06571,105.3962c-1.48157,27.84633,7.96932,54.60513,26.61104,75.34704,18.64368,20.73797,44.24797,32.97665,72.0943,34.45821,1.90121.10245,3.79257.14973,5.68196.14973,25.78554,0,50.33972-9.38981,69.66311-26.76274,20.73994-18.64171,32.97862-44.246,34.46018-72.09233,3.05967-57.48552-41.21982-106.74362-98.70534-109.80525ZM201.49609,115.90507c-1.32395,24.88714-12.26232,47.77259-30.79764,64.43232-18.5373,16.66367-42.46497,25.13538-67.33635,23.78385-24.88911-1.32395-47.77062-12.26232-64.43232-30.79764-16.6617-18.53533-25.1078-42.44921-23.78385-67.33635C17.79186,56.28783,59.06882,17.63711,108.26782,17.63711c1.66085,0,3.33549.04334,5.0121.13397,51.378,2.73853,90.95076,46.75993,88.21617,98.13399Z" fill="#fff"/><polygon points="131.66354 76.44658 101.41558 73.87748 72.03843 45.43222 69.62497 88.7877 30.13496 109.37988 55.8279 130.44096 47.49606 151.38383 76.39175 156.43435 87.7505 147.15979 62.85154 142.80178 69.13834 127.00499 50.16367 111.45249 80.3545 95.70692 81.76711 70.29572 96.53744 84.59519 125.83579 87.08548 138.44288 103.56001 172.51691 103.80037 163.47582 121.55157 127.27992 129.7908 89.70244 159.89396 75.04884 171.85878 72.29061 188.06044 132.22898 140.04355 171.00579 131.22114 190.55576 92.83048 143.95147 92.50343 131.66354 76.44658" fill="#fff"/><polygon points="120.83206 93.70721 110.08209 92.79403 104.46047 92.38128 113.10236 104.18751 129.52419 105.58238 120.83206 93.70721" fill="#fff"/><path d="M263.29461,56.1054h14.81267l19.16922,64.18626c1.45153,5.51856,2.90502,11.03712,4.35655,19.02544,1.74301-8.42358,3.34029-13.50688,4.93756-19.02544l19.89597-64.18626h15.39367l19.74825,64.18626c1.74301,5.6643,3.19651,11.18286,4.79378,19.02544,1.74104-8.85885,3.19454-14.23166,4.64607-18.8797l19.31496-64.332h14.52118l-31.65787,104.99446h-13.65066l-25.41256-83.06596-25.70405,83.06596h-13.94215l-31.22261-104.99446Z" fill="#fff"/><path d="M405.67032,141.34964c0-13.06965,9.72937-21.20175,26.43079-22.5095l22.36376-1.74301v-2.03253c0-11.90764-7.11583-16.12042-16.70143-16.12042-11.47238,0-18.00721,5.0833-18.00721,13.65066h-11.90764c0-14.8107,12.19913-24.54204,30.49586-24.54204,17.57195,0,29.47959,9.29411,29.47959,28.46333v44.58375h-11.61616l-1.4535-11.47238c-3.6298,8.1321-13.35917,13.2154-24.83155,13.2154-15.24793,0-24.25252-8.56933-24.25252-21.49324ZM454.61062,130.45826v-3.77555l-18.15295,1.45153c-12.05339,1.16201-16.99094,5.80808-16.99094,12.78014,0,7.55109,5.51856,11.32664,14.37741,11.32664,12.92391,0,20.76649-8.42358,20.76649-21.78276Z" fill="#fff"/><path d="M525.83393,101.99493h-6.09957c-12.92391,0-20.91223,7.84258-20.91223,21.49324v37.61169h-13.65066v-70.8688h12.78014l.87052,10.7476c2.90502-7.40732,10.02086-12.34487,19.75022-12.34487,2.46976,0,4.50229.29149,7.26157.87249v12.48865Z" fill="#fff"/><path d="M531.38991,125.66645c0-22.21999,14.08592-37.61366,34.70863-37.61366,20.18548,0,33.40088,13.94215,33.40088,34.99815v5.0833l-54.89412.14574c1.01627,14.95644,8.85885,23.23428,22.36376,23.23428,10.60186,0,17.57195-4.35655,19.89597-12.48865h12.77817c-3.48406,15.24793-15.3917,23.81726-32.96365,23.81726-20.91223,0-35.28964-15.10415-35.28964-37.17643ZM544.89482,119.13162h40.95394c0-11.76387-7.69684-19.60645-19.75022-19.60645-11.90961,0-19.46071,7.11583-21.20372,19.60645Z" fill="#fff"/><path d="M603.64327,90.08729h14.08789l11.7619,36.88494c1.59727,5.22904,3.0488,10.60186,4.35655,16.8452,1.16201-6.24334,3.0488-12.19716,4.64804-16.8452l11.90764-36.88494h13.94018l11.76387,36.88494c1.16201,3.48603,3.48406,11.76387,4.64607,16.8452,1.16201-5.66233,2.46976-10.59989,4.50229-16.8452l11.90764-36.88494h14.23166l-24.25055,71.01257h-12.92588l-12.3429-38.04892c-2.32402-7.11583-3.77555-12.63439-4.50229-16.55371-.72675,3.48406-2.03253,8.1321-4.64607,16.69946l-12.34487,37.90318h-13.50491l-23.23625-71.01257Z" fill="#fff"/><path d="M784.68041,90.08729v71.01257h-12.19913l-1.45153-10.7476c-4.06703,7.40732-13.50688,12.49062-23.96103,12.49062-16.55568,0-25.84979-11.18286-25.84979-28.60907v-44.14652h13.65066v39.64422c0,15.24793,6.53483,21.05798,16.99094,21.05798,12.48865,0,19.31299-7.98832,19.31299-23.23625v-37.46595h13.50688Z" fill="#fff"/><path d="M802.63445,161.09986V54.21665h13.65066v106.88321h-13.65066Z" fill="#fff"/><path d="M837.58533,90.08729v-11.32861c0-17.4262,9.58559-24.54204,22.5095-24.54204,2.61354,0,5.6643.14574,8.42358.581v11.76387h-6.09957c-8.85885,0-11.18286,4.50033-11.18286,12.19716v11.32861h16.84717v11.47238h-16.84717v59.54019h-13.65066v-59.54019h-10.45415v-11.47238h10.45415Z" fill="#fff"/><path d="M939.81066,123.63194v37.46791h-14.23166V56.1054h40.8082c20.62075,0,33.83614,13.50491,33.83614,33.6904,0,19.60448-13.36114,33.83614-33.83614,33.83614h-26.57654ZM939.81066,68.88357v41.97021h23.52577c14.08789,0,21.9285-8.27784,21.9285-21.20372,0-13.21343-7.98635-20.76649-21.34749-20.76649h-24.10677Z" fill="#fff"/><path d="M1052.19077,101.99493h-6.09957c-12.92391,0-20.91223,7.84258-20.91223,21.49324v37.61169h-13.65066v-70.8688h12.78014l.87052,10.7476c2.90502-7.40732,10.02086-12.34487,19.75022-12.34487,2.46976,0,4.50229.29149,7.26157.87249v12.48865Z" fill="#fff"/><path d="M1094.53125,88.19853c21.20175,0,36.88494,15.39367,36.88494,37.32217s-15.68319,37.32217-36.88494,37.32217c-21.34749,0-37.03068-15.39367-37.03068-37.32217s15.68319-37.32217,37.03068-37.32217ZM1094.53125,150.64374c13.65066,0,23.23428-10.31037,23.23428-25.12304s-9.58362-25.12304-23.23428-25.12304c-13.7964,0-23.23625,10.31037-23.23625,25.12304s9.43985,25.12304,23.23625,25.12304Z" fill="#fff"/></svg>