<?xml version="1.0" encoding="UTF-8"?><svg id="Layer_1" xmlns="http://www.w3.org/2000/svg" viewBox="0 0 910 260"><path d="M207.596553,33.191812C109.921382-44.315451-28.77686,47.549295,8.690669,169.181741l.000183-.000061c1.653442,5.206909,3.647766,10.260498,5.952454,15.139709l-.000183-.000122c10.713684,22.673767,28.477051,41.864807,50.293457,54.237976l-.000244-.000122c.44342.252502.879395.51593,1.326233.762878,137.769165,69.20752,253.955688-105.155457,141.333984-206.130188ZM25.155269,182.089761c-3.378052-6.7453-6.104126-13.869019-8.075684-21.301147l61.557251-61.588074,34.542664,34.560059-14.682373,14.69104-19.860291-19.869019-53.481567,53.507141ZM230.107417,181.764627l-53.157532-53.182007-102.977539,103.026001c-6.324036-3.281677-12.294006-7.146118-17.845276-11.526672l120.822815-120.881409,61.175049,61.205322c-1.947632,7.450989-4.657043,14.593201-8.017517,21.358765Z"/><rect x="687.325618" y="35.937845" width="10.675781" height="187.883423"/><path d="M404.998103,127.730691c3.845032-5.910522,5.767578-13.057007,5.767578-21.437988,0-12.397034-3.990784-22.039185-11.966797-28.926453-7.978882-6.888611-19.085327-10.331543-33.319397-10.331543h-48.03833v125.86908h22.039124v-47.007019h27.033325l21.352539,47.007019h24.104675l-23.933716-51.656433c7.460388-3.099609,13.113098-7.603271,16.960999-13.516663ZM381.837886,121.101297c-3.903931,3.559204-9.357666,5.337463-16.358398,5.337463h-25.999207v-39.775085h25.999207c7.000732,0,12.454468,1.695557,16.358398,5.079651,3.901123,3.386841,5.854492,8.238037,5.854492,14.549377,0,6.315491-1.953369,11.252197-5.854492,14.808594Z"/><polygon points="451.436153 67.034708 429.396968 67.034708 429.396968 192.903787 433.183223 192.903787 451.436153 192.903787 503.952937 192.903787 503.952937 172.585367 451.436153 172.585367 451.436153 67.034708"/><path d="M590.58221,167.59263c-6.143127,4.132324-13.519409,6.197815-22.128845,6.197815-7.575256,0-14.203247-1.807617-19.88678-5.422913-5.680786-3.616699-10.072327-8.7229-13.171936-15.325684-3.099609-6.598572-4.649414-14.262146-4.649414-22.98645,0-9.067627,1.549805-16.874084,4.649414-23.41803,3.099609-6.54248,7.49115-11.592651,13.171936-15.151917,5.683533-3.5578,12.311523-5.338806,19.88678-5.338806,8.494507,0,15.697021,2.040222,21.610413,6.113708,5.910522,4.07489,9.957397,9.787903,12.140564,17.131958h23.244324c-1.376099-9.066223-4.649475-16.900757-9.814514-23.50354-5.1651-6.599976-11.709045-11.735596-19.629028-15.411133-7.919922-3.671326-16.874084-5.509827-26.862305-5.509827-12.16864,0-22.899536,2.698853-32.198364,8.09375-9.298828,5.396301-16.50415,12.972961-21.610413,22.728577-5.109009,9.758484-7.662109,21.178833-7.662109,34.265259,0,13.201355,2.49707,24.652527,7.49115,34.350769,4.994141,9.702393,11.992065,17.21875,21.005066,22.557617,9.012939,5.337463,19.656982,8.006836,31.943298,8.006836,9.985474,0,19.026489-1.83844,27.117432-5.511169,8.093689-3.671326,14.808594-8.83783,20.1474-15.496643,5.338867-6.656067,8.808472-14.347595,10.417114-23.073303h-22.902405c-2.065491,7.00354-6.171204,12.570801-12.308777,16.703125Z"/><path d="M809.387874,65.418069l-47.751465,130.002808h13.25415l12.712402-34.497314h59.917236l12.707397,34.497314h13.618652l-48.298218-130.002808h-16.160156ZM791.597347,149.484354l24.14917-65.729126c.359619-.844666.69458-1.782959.994873-2.814819.300537-1.026978.517212-1.842102.635498-2.450378.123047.608276.364502,1.39386.728882,2.361694.364502.970337.664917,1.935669.906372,2.903503l24.331299,65.729126h-51.746094Z"/><rect x="889.351253" y="65.418069" width="13.072021" height="130.002808"/></svg>