<?xml version="1.0" encoding="UTF-8"?><svg id="Layer_1" xmlns="http://www.w3.org/2000/svg" viewBox="0 0 349.36474 372"><path d="M121.138202,208.774973c-.38933-.215302-.769451-.444977-1.156018-.664978l1.156018.664978Z"/><path d="M244.356208,29.066291c-85.155328-67.572453-206.075356,12.51716-173.41039,118.558932l.000184-.000092c1.441477,4.539499,3.1802,8.945322,5.189464,13.199133l-.000184-.000092c9.340431,19.767489,24.826936,36.498615,43.846902,47.285823l-.000184-.000092c.386567.220093.766688.449767,1.156202.66507,120.110088,60.336562,221.403989-91.676743,123.218006-179.708682ZM131.92635,86.614125l30.115025,30.130175-12.800359,12.807959-17.314666-17.322216-46.626354,46.648668c-2.945018-5.880694-5.321696-12.091298-7.040529-18.570822l53.666883-53.693764ZM112.301858,192.001101l105.33592-105.386976,53.333725,53.360078c-1.698022,6.495923-4.060151,12.722649-6.989883,18.621032l-46.343842-46.365191-89.778025,89.820254c-5.513414-2.861025-10.718164-6.230135-15.557895-10.049196Z"/><rect x="219.664429" y="258.639285" width="6.204933" height="109.200497"/><path d="M55.571902,311.990697c2.234526-3.435473,3.351789-7.589045,3.351789-12.460224,0-7.205187-2.319444-12.809523-6.954876-16.812267-4.637901-4.003732-11.09265-6.004981-19.365729-6.004981H4.68237v73.157036h12.809276v-27.321354h15.712284l12.410359,27.321354h14.009976l-13.91074-30.023422c4.336245-1.801544,7.621877-4.419188,9.858378-7.856142ZM42.110437,308.137546c-2.269086,2.06864-5.438697,3.10222-9.507351,3.10222h-15.11144v-23.117917h15.11144c4.068655,0,7.238265.98569,9.507351,2.952379,2.267605,1.968664,3.402641,4.788235,3.402641,8.456245,0,3.670725-1.135037,6.539914-3.402641,8.607073Z"/><polygon points="82.561977 276.713225 69.752702 276.713225 69.752702 349.870261 71.953162 349.870261 82.561977 349.870261 113.085527 349.870261 113.085527 338.060745 82.561977 338.060745 82.561977 276.713225"/><path d="M163.435929,335.158972c-3.570502,2.401647-7.85787,3.602347-12.861609,3.602347-4.402895,0-8.255306-1.050612-11.558711-3.151837-3.301431-2.102212-5.853906-5.069896-7.655449-8.907495-1.801544-3.835377-2.702562-8.289371-2.702562-13.360255,0-5.270095.901019-9.807526,2.702562-13.610812,1.801544-3.802546,4.354018-6.737891,7.655449-8.806531,3.303406-2.067899,7.155816-3.10296,11.558711-3.10296,4.937088,0,9.123246,1.185889,12.559953,3.553223,3.435226,2.368568,5.787749,5.689007,7.05658,9.957367h13.509849c-.799808-5.269354-2.702562-9.822831-5.704312-13.66043-3.002243-3.836118-6.805776-6.820835-11.408624-8.957113-4.603341-2.13381-9.807526-3.202442-15.613048-3.202442-7.072379,0-13.309403,1.568513-18.714034,4.704058-5.404631,3.136532-9.592269,7.540168-12.559953,13.210414-2.969659,5.671727-4.453747,12.309149-4.453747,19.915227,0,7.672976,1.451504,14.328418,4.354018,19.965092,2.903008,5.639142,6.970181,10.007972,12.208432,13.110932,5.238745,3.10222,11.424916,4.6537,18.565921,4.6537,5.803547,0,11.058584-1.068633,15.761161-3.203183,4.704058-2.13381,8.606826-5.136547,11.709786-9.00673,3.10296-3.868702,5.119761-8.339236,6.054845-13.410613h-13.311378c-1.200206,4.070629-3.586795,7.306397-7.153841,9.708044Z"/><path d="M290.608909,275.773697l-27.753843,75.559423h7.703339l7.388847-20.050257h34.824247l7.385884,20.050257h7.915634l-28.071791-75.559423h-9.392317ZM280.268671,324.634333l14.035649-38.202697c.209333-.49124.403854-1.036295.578627-1.636151.174279-.596894.300175-1.070608.368801-1.42435.072081.353742.212295.810176.424096,1.372757.211801.564062.386574,1.125162.526787,1.687744l14.141796,38.202697h-30.075755Z"/><rect x="337.084684" y="275.773697" width="7.597685" height="75.559423"/></svg>