<?xml version="1.0" encoding="UTF-8"?><svg id="a" xmlns="http://www.w3.org/2000/svg" viewBox="0 0 288 208.8"><path d="M135.41328,73.83909l4.50542-4.50783-18.12706-17.41432-23.56474,23.57733c.25135,1.01472.529,2.03086.8423,3.04756.40071,1.26225.87908,2.50469,1.39068,3.73299l21.42229-21.43219,13.53112,12.99646Z"/><path d="M187.44861,81.94158c.26238-.6133.54216-1.21444.78261-1.84273.61571-1.60907,1.10708-3.22662,1.54188-4.84616l-23.36884-23.38101-50.16926,50.19345c1.30454.93608,2.63949,1.82916,4.03512,2.62068l.41471.23989c.386.19236.77257.3587,1.15885.54201l44.56057-44.57981,21.04435,21.05368Z"/><path d="M144,10.0175c29.54981,0,53.59037,24.04042,53.59037,53.59037s-24.04056,53.59037-53.59037,53.59037-53.59037-24.04042-53.59037-53.59037,24.04056-53.59037,53.59037-53.59037M144,3.64459c-33.11675,0-59.96328,26.84667-59.96328,59.96328s26.84653,59.96328,59.96328,59.96328,59.96328-26.84639,59.96328-59.96328S177.11689,3.64459,144,3.64459h0Z"/><path d="M191.1767,187.44621h23.68945v4.75195h-28.87402v-51.55664h5.18457v46.80469Z"/><path d="M209.95209,140.64152h36.93848v4.75293h-15.91309v46.80371h-5.18457v-46.80371h-15.84082v-4.75293Z"/><path d="M267.52338,139.70597c9.28906,0,15.40918,5.18457,16.20215,13.8252h-5.25684c-.57617-5.83301-4.53613-9.14453-11.0166-9.14453-7.27344,0-12.02539,3.74414-12.02539,9.57617,0,4.53711,2.66406,7.41699,8.06445,8.78516l8.85742,2.16016c8.06445,1.94434,12.24023,6.55273,12.24023,13.53711,0,8.92871-6.91211,14.61719-17.56934,14.61719-10.00879,0-16.77734-5.25684-17.42578-13.68066h5.3291c.28809,5.40039,5.04004,8.92871,12.09668,8.92871,7.56055,0,12.38477-3.67285,12.38477-9.57715,0-4.6084-2.5918-7.63281-8.13574-8.92871l-8.71289-2.16016c-8.06543-1.94434-12.31348-6.55273-12.31348-13.60938,0-8.64062,6.91309-14.3291,17.28125-14.3291Z"/><rect x="156.24153" y="127.52501" width="4.41107" height="77.6304"/><path d="M39.58831,165.45246c1.58875-2.44214,2.38306-5.3949,2.38306-8.85779,0-5.12219-1.64893-9.1062-4.94446-11.9519-3.29675-2.84631-7.88574-4.26892-13.76697-4.26892H3.41119v52.00708h9.10632v-19.42249h11.16968l8.82251,19.42249h9.95959l-9.88904-21.34351c3.08252-1.28076,5.41821-3.1416,7.00806-5.58496ZM30.01898,162.71345c-1.61316,1.47046-3.86646,2.20532-6.75903,2.20532h-10.74243v-16.43445h10.74243c2.89258,0,5.14587.70056,6.75903,2.09875,1.61182,1.39941,2.41895,3.40381,2.41895,6.0116,0,2.6095-.80713,4.64929-2.41895,6.11877Z"/><polygon points="58.77581 140.37385 49.66961 140.37385 49.66961 192.38093 51.23394 192.38093 58.77581 192.38093 80.47479 192.38093 80.47479 183.98566 58.77581 183.98566 58.77581 140.37385"/><path d="M121.35442,175.02131c-.85339,2.8938-2.5498,5.19409-5.08569,6.90161-2.53833,1.70728-5.58606,2.56079-9.14331,2.56079-3.13,0-5.86865-.74695-8.21692-2.24072-2.34729-1.49438-4.16174-3.60413-5.4425-6.33228-1.28064-2.72644-1.92102-5.89282-1.92102-9.49756,0-3.7467.64038-6.97217,1.92102-9.67603,1.28076-2.70337,3.09521-4.78992,5.4425-6.2605,2.34827-1.47009,5.08691-2.20605,8.21692-2.20605,3.50977,0,6.48572.84302,8.92908,2.52612,2.44214,1.68372,4.11414,4.04419,5.01624,7.07861h9.60425c-.5686-3.74585-1.92114-6.98303-4.05518-9.71118-2.13428-2.72705-4.83813-4.849-8.11047-6.36768-3.27234-1.51685-6.97205-2.27661-11.099-2.27661-5.02795,0-9.46179,1.11523-13.30396,3.34424-3.84204,2.22974-6.81921,5.36035-8.92896,9.39111-2.11108,4.03198-3.16602,8.75073-3.16602,14.15796,0,5.45459,1.03174,10.18591,3.09534,14.19312,2.06348,4.00879,4.95496,7.1145,8.67883,9.32043,3.72412,2.20532,8.12207,3.30823,13.19849,3.30823,4.12598,0,7.86157-.75952,11.20459-2.2771,3.34412-1.51685,6.11865-3.65161,8.32446-6.40295,2.20605-2.75012,3.63965-5.9281,4.3042-9.53357h-9.46289Z"/></svg>