<?xml version="1.0" encoding="UTF-8"?><svg id="a" xmlns="http://www.w3.org/2000/svg" viewBox="0 0 904.53218 444.66988"><path d="M48.77624,326.20401l-40.52137,110.31679h13.26971l10.57902-28.71672h48.41238l10.58103,28.71672h13.57687l-40.98279-110.31679h-14.91484ZM56.18705,341.81165c.11938.35076.23674.70721.3474,1.07205l19.72952,53.29882h-40.06398l19.57393-53.27333c.1395-.34941.279-.72063.41313-1.09754Z" fill="#fff"/><path d="M145.45949,394.85461l-12.5521-3.17592c-7.3927-1.81313-11.14103-5.33478-11.14103-10.46668,0-9.73901,9.3792-11.19301,14.96984-11.19301,9.23367,0,14.69084,4.53367,14.97252,12.43876l.03622,1.01203h12.22348l-.03622-1.08446c-.47349-14.2368-10.7782-23.08082-26.89286-23.08082-16.44865,0-27.49981,8.86447-27.49981,22.05806,0,10.54817,6.62412,17.55222,19.68459,20.81734l12.5521,3.17491c8.99625,2.20983,10.8399,5.84347,10.8399,10.61959,0,7.29244-6.33172,11.64604-16.93756,11.64604-9.6079,0-15.57679-4.868-15.57679-12.70468v-1.04959h-12.07325v1.04959c0,14.22641,10.91301,23.41917,27.80161,23.41917,17.26149,0,28.85924-9.16861,28.85924-22.81457,0-10.96666-5.932-17.34063-19.22988-20.66577Z" fill="#fff"/><path d="M230.47725,412.19054c-2.73228,8.91443-11.17792,14.67441-21.51617,14.67441-14.2368,0-23.4356-10.9784-23.4356-27.96927,0-16.9104,9.72124-28.27208,24.19009-28.27208,10.23094,0,18.12396,5.72477,20.59937,14.94066l.20858.7773h12.5018l-.23674-1.24542c-2.97707-15.66766-16.01808-25.79163-33.22458-25.79163-21.78108,0-36.41491,15.97114-36.41491,39.74173,0,23.49965,14.39173,39.2887,35.81199,39.2887,17.11394,0,30.50706-10.04852,34.12058-25.59949l.29912-1.287h-12.67618l-.22735.74209Z" fill="#fff"/><path d="M308.75486,413.27131c-2.58607,9.18941-9.97207,14.04667-21.3599,14.04667-14.70761,0-23.67771-9.46236-24.73937-26.01295h58.13295v-6.18819c0-10.43449-3.28222-19.38078-9.4912-25.87178-6.22106-6.50307-14.79949-9.94055-24.80844-9.94055-10.52738,0-19.56387,3.82344-26.13233,11.05619-6.5309,7.19251-9.98347,17.05962-9.98347,28.53498,0,23.58985,14.81693,39.43926,36.87029,39.43926,17.58072,0,29.48228-8.70821,33.51229-24.52006l.33399-1.3088h-12.11953l-.21528.76522ZM263.06134,391.64851c2.1146-13.38171,10.80101-21.32737,23.42755-21.32737,12.8814,0,21.32369,8.33364,21.75358,21.32737h-45.18113Z" fill="#fff"/><path d="M370.84874,359.30451c-10.0787,0-19.16147,4.72414-24.41275,12.51253l-1.25548-10.54783h-11.04982v75.25159h12.52662v-39.2887c0-16.47212,8.36516-26.30603,22.3773-26.30603,12.7922,0,18.74969,7.01411,18.74969,22.07416v43.52057h12.52863v-45.78775c0-20.56081-10.18869-31.42854-29.46418-31.42854Z" fill="#fff"/><path d="M473.95625,372.24828c-5.50747-8.38193-14.5433-12.94377-25.85199-12.94377-10.74601,0-19.77714,3.9569-26.11758,11.44249-6.04601,7.13819-9.24172,16.92381-9.24172,28.29924,0,23.49965,14.02689,39.2887,34.90391,39.2887,11.98338,0,21.39075-4.9629,26.87341-14.06914l.86649,12.255h11.0961v-112.2815h-12.52863v48.00898ZM473.8067,398.74377c0,16.99088-9.55559,27.96961-24.34368,27.96961-14.60366,0-24.03987-10.97873-24.03987-27.96961s9.43621-27.96961,24.03987-27.96961c14.78809,0,24.34368,10.97873,24.34368,27.96961Z" fill="#fff"/><path d="M557.96199,413.27165c-2.58473,9.18907-9.96938,14.04634-21.35722,14.04634-14.70828,0-23.67838-9.46236-24.73937-26.01295h58.13295v-6.18819c0-10.43415-3.28289-19.38044-9.49254-25.87178-6.22173-6.50307-14.80083-9.94055-24.80911-9.94055-10.5267,0-19.56253,3.82344-26.13032,11.05653-6.5309,7.19218-9.98347,17.05962-9.98347,28.53464,0,23.58985,14.81693,39.43926,36.87029,39.43926,17.58005,0,29.48161-8.70821,33.51229-24.52006l.33399-1.3088h-12.12288l-.21461.76556ZM512.27048,391.64851c2.11325-13.38171,10.79899-21.32737,23.42621-21.32737,12.88274,0,21.3257,8.33364,21.75559,21.32737h-45.1818Z" fill="#fff"/><path d="M615.82533,359.60665c-8.80243,0-16.15557,3.76476-20.0729,10.0502l-.55799-8.38763h-11.85663v75.25159h12.52863v-42.76407c0-13.31867,8.24914-21.9246,21.01652-21.9246h6.79313v-11.25169l-.80949-.19047c-2.76313-.64987-4.81334-.78333-7.04128-.78333Z" fill="#fff"/><path d="M724.9346,326.20401h-42.31003v110.31679h12.982v-39.74978h29.32803c20.64162,0,35.05817-14.60232,35.05817-35.50986,0-21.29619-13.76131-35.05716-35.05817-35.05716ZM695.60656,338.12804h27.8177c14.48562,0,23.1338,8.59118,23.1338,22.98123,0,14.64188-9.09618,23.73773-23.73874,23.73773h-27.21277v-46.71896Z" fill="#fff"/><path d="M802.82725,359.60665c-8.80243,0-16.15557,3.76509-20.07223,10.05053l-.55866-8.38796h-11.85663v75.25159h12.52863v-42.76407c0-13.31867,8.24981-21.9246,21.01719-21.9246h6.79313v-11.25169l-.80949-.19047c-2.76447-.64987-4.81401-.78333-7.04195-.78333Z" fill="#fff"/><path d="M850.6414,359.30451c-22.15262,0-38.23107,16.65052-38.23107,39.59117,0,22.85246,16.07844,39.43926,38.23107,39.43926,22.15128,0,38.22905-16.5868,38.22905-39.43926,0-22.94065-16.07777-39.59117-38.22905-39.59117ZM850.6414,426.86495c-15.04495,0-25.55288-11.56388-25.55288-28.12118,0-16.4681,10.50793-27.96961,25.55288-27.96961s25.55087,11.50151,25.55087,27.96961c0,16.55729-10.50658,28.12118-25.55087,28.12118Z" fill="#fff"/><path d="M448.56266,21.46988c70.17747,0,127.27109,57.09329,127.27109,127.27109s-57.09362,127.27109-127.27109,127.27109-127.27109-57.09329-127.27109-127.27109,57.09362-127.27109,127.27109-127.27109M448.56266,6.33494c-78.64855,0-142.40603,63.75782-142.40603,142.40603s63.75748,142.40603,142.40603,142.40603,142.40603-63.75715,142.40603-142.40603S527.21154,6.33494,448.56266,6.33494h0Z" fill="#fff"/><polygon points="493.87236 226.48507 412.65007 226.48507 403.92265 211.35013 467.5582 211.35013 425.1336 138.4326 374.29843 226.48507 356.82054 226.48507 425.08523 108.24872 493.87236 226.48507" fill="#fff"/><polygon points="477.19221 48.22492 442.73785 107.9034 451.57205 122.87575 477.24058 78.41955 511.61668 137.54042 460.22419 137.54042 469.15379 152.67536 520.41695 152.67536 543.71124 192.7378 561.17239 192.65853 477.19221 48.22492" fill="#fff"/></svg>