<?xml version="1.0" encoding="UTF-8"?><svg id="Layer_1" xmlns="http://www.w3.org/2000/svg" viewBox="0 0 500 400"><defs><style>.cls-1{fill:#fff;}</style></defs><path class="cls-1" d="M52.134885,297.243469c1.981654-3.047089,2.973697-6.731116,2.973697-11.050745,0-6.391639-2.056323-11.3614-6.168908-14.911716-4.112585-3.551593-9.838403-5.326143-17.175082-5.326143H7v64.885144h11.362556v-24.232481h13.934145l11.006235,24.232481h12.426836l-12.337755-26.628282c3.845345-1.598761,6.761215-3.919953,8.742869-6.968258ZM40.196804,293.825527c-2.012908,1.836024-4.822855,2.752182-8.432213,2.752182h-13.402035v-20.503944h13.402035c3.609358,0,6.419305.87408,8.432213,2.618531,2.010536,1.745667,3.017051,4.246236,3.017051,7.500429,0,3.255409-1.006515,5.799271-3.017051,7.632802Z"/><path class="cls-1" d="M95.904502,288.677605c-3.520217-1.952771-7.558194-2.929126-12.116241-2.929126-4.495417,0-8.518922.976355-12.070454,2.929126s-6.332597,4.660383-8.343133,8.121618c-2.012969,3.462452-3.019423,7.471546-3.019423,12.027161,0,4.558047,1.006454,8.565864,3.019423,12.028316,2.010536,3.461297,4.791601,6.168908,8.343133,8.121618,3.551532,1.952771,7.575037,2.929187,12.070454,2.929187,4.558047,0,8.596024-.976416,12.116241-2.929187,3.520278-1.95271,6.286871-4.660322,8.29984-8.121618,2.010536-3.462452,3.019423-7.470269,3.019423-12.028316,0-4.555615-1.008886-8.564709-3.019423-12.027161-2.012969-3.461236-4.779562-6.168847-8.29984-8.121618ZM94.796928,315.839213c-1.066712,2.012908-2.545078,3.580415-4.440084,4.704892-1.892513,1.124478-4.08127,1.68547-6.568583,1.68547-2.484881,0-4.659106-.560992-6.522797-1.68547s-3.344489-2.691984-4.437652-4.704892c-1.095534-2.010536-1.642115-4.349788-1.642115-7.012829,0-2.720867.546581-5.073313,1.642115-7.056183,1.093163-1.981654,2.573961-3.534689,4.437652-4.660383,1.863691-1.123201,4.037916-1.68547,6.522797-1.68547,2.487313,0,4.67607.562269,6.568583,1.68547,1.895006,1.125694,3.373372,2.678729,4.440084,4.660383,1.064219,1.98287,1.59639,4.335316,1.59639,7.056183,0,2.663041-.53217,5.002292-1.59639,7.012829Z"/><path class="cls-1" d="M145.026773,314.773717c-.592307,2.427115-1.791454,4.291962-3.594886,5.592228-1.805865,1.302638-4.069231,1.95271-6.790098,1.95271-2.309092,0-4.305217-.546581-5.993119-1.642115-1.68547-1.094379-2.973697-2.647414-3.859756-4.660383-.888491-2.010536-1.331521-4.407553-1.331521-7.189773,0-2.779849.471912-5.176865,1.420601-7.189834.943885-2.010536,2.292249-3.563572,4.037977-4.659166,1.745667-1.094318,3.741732-1.642115,5.990687-1.642115,2.602843,0,4.779562.636878,6.525229,1.908201,1.743296,1.272539,2.942382,3.150641,3.594886,5.636738h10.828075c-.592368-5.265945-2.795536-9.453139-6.611938-12.560486-3.816401-3.10607-8.713986-4.660322-14.690202-4.660322-4.319689,0-8.121618.991982-11.40591,2.973636-3.284292,1.984086-5.858313,4.72058-7.721943,8.210759-1.866062,3.492551-2.797908,7.487173-2.797908,11.98259,0,4.67601.902902,8.744024,2.708828,12.205321,1.803433,3.461236,4.362983,6.155592,7.676157,8.077048,3.315606,1.922672,7.189773,2.884617,11.629857,2.884617,3.845284,0,7.276482-.724742,10.295904-2.174286,3.01699-1.449483,5.48746-3.461236,7.411288-6.035257,1.921456-2.573961,3.120603-5.577756,3.594947-9.010109h-10.917155Z"/><polygon class="cls-1" points="192.210745 330.84001 204.637581 330.84001 188.305203 304.388733 204.993962 286.990919 191.413766 286.990919 174.371058 305.365088 174.371058 264.800289 163.629692 264.800289 163.629692 330.84001 174.371058 330.84001 174.371058 319.034364 180.761481 312.377916 192.210745 330.84001"/><path class="cls-1" d="M242.674144,286.990919l-11.875572,31.977774-11.290197-31.977774h-11.451697l17.633313,45.733881-1.211855,3.263192c-.592307,1.715569-1.31711,3.018206-2.174286,3.905481-.859608.888491-1.820337,1.494054-2.884556,1.820337-1.066712.32385-2.309153.4876-3.729753.4876h-6.479503v8.965539c1.184675.355165,2.441587.605563,3.773108.753685,1.331521.148062,2.766593.222731,4.305217.222731,3.609297,0,6.626348-.91859,9.053464-2.752182,2.424683-1.834747,4.437652-4.763874,6.036413-8.787379l21.480299-53.612885h-11.184395Z"/><polygon class="cls-1" points="296.908279 330.84001 323.97953 330.84001 323.97953 320.365945 296.908279 320.365945 296.908279 265.954866 285.545663 265.954866 285.545663 330.84001 287.498434 330.84001 296.908279 330.84001"/><rect class="cls-1" x="330.360346" y="286.990919" width="10.830446" height="43.84909"/><path class="cls-1" d="M335.686428,278.203541c1.834808,0,3.387843-.634506,4.661599-1.908261,1.271323-1.271323,1.906984-2.824358,1.906984-4.660322,0-1.833592-.635661-3.372216-1.906984-4.614657-1.273755-1.243656-2.82679-1.864846-4.661599-1.864846-1.834747,0-3.387783.62119-4.659106,1.864846-1.273755,1.24244-1.909417,2.781065-1.909417,4.614657,0,1.835964.635661,3.388999,1.909417,4.660322,1.271323,1.273755,2.824358,1.908261,4.659106,1.908261Z"/><path class="cls-1" d="M376.44629,285.659399c-2.959225,0-5.694503.622406-8.210699,1.864846s-4.452123,2.959225-5.812527,5.147983l-.888491-5.681308h-10.031035v43.84909h10.830446v-23.611231c0-3.550377.946256-6.390423,2.83883-8.521354,1.894945-2.129715,4.529164-3.195151,7.900104-3.195151,2.841262,0,5.090156.902902,6.746744,2.707612,1.656587,1.805865,2.484881,4.542359,2.484881,8.210699v24.409426h10.830446v-26.983387c0-5.621111-1.406129-10.059979-4.216076-13.315327-2.81238-3.253038-6.968319-4.881897-12.472622-4.881897Z"/><path class="cls-1" d="M432.794453,309.980961c0,4.142623-.830665,7.234283-2.484881,9.274979-1.658959,2.04179-4.204037,3.062716-7.635235,3.062716-3.01699,0-5.323711-.916158-6.922532-2.750905-1.598822-1.833592-2.395801-4.822916-2.395801-8.9656v-23.611231h-10.830446v27.427632c0,5.326143,1.420661,9.58679,4.261863,12.782001,2.83883,3.195211,6.773255,4.792817,11.805646,4.792817,2.956793,0,5.737857-.651349,8.343133-1.952771,2.602904-1.300206,4.555615-2.986892,5.858252-5.058842l.799411,5.858252h10.028664v-43.84909h-10.828075v22.990041Z"/><polygon class="cls-1" points="493 286.990919 480.838033 286.990919 471.519701 301.903852 461.842615 286.990919 449.23999 286.990919 464.329928 309.35971 449.23999 330.84001 461.577746 330.84001 470.72029 316.371323 480.127703 330.84001 492.554538 330.84001 478.085851 309.27063 493 286.990919"/><polygon class="cls-1" points="153.669921 365.340546 153.543689 365.340546 153.543689 395.354604 156.561652 395.354604 156.561652 382.150248 168.844986 382.150248 168.844986 379.425064 156.561652 379.425064 156.561652 368.1072 171.234098 368.1072 171.234098 365.340546 156.561652 365.340546 153.669921 365.340546"/><path class="cls-1" d="M194.582892,379.425064c1.075711-1.452645,1.613598-3.255044,1.613598-5.407622,0-2.682499-.87335-4.799263-2.619991-6.350352-1.74664-1.551029-4.128881-2.326543-7.146844-2.326543h-11.192847v30.014058h3.017963v-12.449881h8.761597l6.120081,12.449881h3.353428l-6.413468-12.953047c1.92857-.530529,3.430772-1.522632,4.506484-2.976494ZM186.51381,380.1796h-8.259039v-12.114477h8.174884c2.040027,0,3.660435.517395,4.862379,1.551029,1.200789,1.034242,1.802338,2.529573,1.802338,4.485445,0,1.872264-.579903,3.353428-1.73983,4.443367-1.159866,1.08994-2.773464,1.634636-4.840732,1.634636Z"/><path class="cls-1" d="M221.210019,366.786381c-2.137802-1.327021-4.617879-1.991079-7.440231-1.991079-2.795111,0-5.268378.664058-7.4198,1.991079-2.152639,1.327629-3.835555,3.158424-5.05118,5.491838-1.215625,2.333353-1.823985,5.023818-1.823985,8.069082,0,3.046359.600455,5.729466,1.802399,8.048652,1.201944,2.32028,2.886015,4.143718,5.051119,5.470739,2.166259,1.327629,4.646337,1.991139,7.441447,1.991139,2.793895,0,5.267161-.66351,7.4198-1.991139,2.151423-1.327021,3.835555-3.150459,5.051119-5.470739,1.215625-2.319185,1.82283-5.002292,1.82283-8.048652,0-3.045265-.607204-5.735729-1.82283-8.069082-1.215564-2.333414-2.892886-4.164209-5.030689-5.491838ZM223.536623,386.929019c-.950634,1.900722-2.257225,3.381276-3.91971,4.443367s-3.611547,1.593106-5.847125,1.593106c-2.208337,0-4.150589-.531015-5.826694-1.593106-1.677261-1.062091-2.983851-2.542646-3.91971-4.443367-.937014-1.900113-1.404366-4.093675-1.404366-6.581717,0-2.514797.467352-4.715716,1.404366-6.602209.935859-1.886493,2.242449-3.360238,3.91971-4.422329,1.676106-1.061483,3.618357-1.593106,5.826694-1.593106,2.235578,0,4.18464.531623,5.847125,1.593106,1.662485,1.062091,2.969075,2.535836,3.91971,4.422329.949479,1.886493,1.424796,4.087412,1.424796,6.602209,0,2.488043-.475317,4.681604-1.424796,6.581717Z"/><path class="cls-1" d="M246.985442,391.791398l-10.940383-26.450851h-2.97698v30.014058h2.97698v-14.713916c0-2.290789-.021586-4.22617-.063663-5.805656-.042077-1.57833-.104586-2.647232-.188741-3.206704l9.76799,23.726275h2.891731l9.76799-23.85196c-.056853.531076-.098931,1.08313-.126232,1.655675-.028457.573153-.048888,1.222983-.062569,1.949062-.014776.727174-.028396,1.579486-.042077,2.557422-.014776.978483-.021586,2.124182-.021586,3.436974v14.252827h2.977041v-30.014058h-3.017963l-10.941538,26.450851Z"/><path class="cls-1" d="M298.335021,391.12053c-1.760261,1.201944-3.828745,1.802885-6.204175,1.802885-2.17988,0-4.093675-.524205-5.742539-1.572067s-2.934964-2.521607-3.857141-4.422329c-.922238-1.900113-1.38278-4.093675-1.38278-6.581717,0-2.542646.453731-4.757793,1.362288-6.644286.907462-1.885946,2.193561-3.353428,3.857141-4.40129,1.661391-1.047862,3.583151-1.572067,5.763031-1.572067,2.375431,0,4.415458.61517,6.12002,1.844416,1.704563,1.230401,2.87811,2.934416,3.521737,5.114296h3.22829c-.392257-2.012178-1.188263-3.752008-2.390206-5.218882-1.202005-1.467482-2.682499-2.605762-4.44282-3.416544-1.761416-.810234-3.730909-1.215564-5.910788-1.215564-2.795111,0-5.268378.649829-7.4198,1.949001-2.152639,1.29978-3.828745,3.116894-5.030689,5.449761-1.201944,2.333961-1.802399,5.037499-1.802399,8.11116,0,3.074816.593584,5.771544,1.781907,8.090729,1.187168,2.319733,2.836033,4.128942,4.946534,5.428661,2.109406,1.299172,4.562182,1.949062,7.356137,1.949062,2.152578,0,4.135752-.398033,5.952866-1.194586,1.816019-.796553,3.346617-1.907532,4.590639-3.332936,1.242866-1.424796,2.088915-3.073661,2.535775-4.946534h-3.22829c-.642472,1.984876-1.844416,3.577983-3.604737,4.778832Z"/><rect class="cls-1" x="309.782583" y="365.340546" width="3.017963" height="30.014058"/><path class="cls-1" d="M344.633482,388.395953c1.215564-2.319185,1.82283-5.002292,1.82283-8.048652,0-3.045265-.607265-5.735729-1.82283-8.069082-1.215625-2.333414-2.892886-4.164209-5.030689-5.491838-2.137802-1.327021-4.61794-1.991079-7.440292-1.991079-2.79505,0-5.268317.664058-7.4198,1.991079-2.152578,1.327629-3.835555,3.158424-5.051119,5.491838-1.215625,2.333353-1.823985,5.023818-1.823985,8.069082,0,3.046359.600394,5.729466,1.802338,8.048652,1.201944,2.32028,2.886076,4.143718,5.05118,5.470739,2.166259,1.327629,4.646337,1.991139,7.441386,1.991139,2.793955,0,5.267222-.66351,7.4198-1.991139.207529-.127996.390007-.282746.588841-.419984l3.225128,3.626688,2.054803-1.886493-3.154228-3.53025c.90728-.950695,1.692341-2.030967,2.336637-3.260699ZM336.311935,384.958371l-2.011631,1.886493,3.900313,4.385906c-.066096.044327-.123739.098627-.19099.141616-1.662485,1.062091-3.611486,1.593106-5.847125,1.593106-2.208276,0-4.150528-.531015-5.826694-1.593106-1.677261-1.062091-2.98379-2.542646-3.919649-4.443367-.937014-1.900113-1.404366-4.093675-1.404366-6.581717,0-2.514797.467352-4.715716,1.404366-6.602209.935859-1.886493,2.242388-3.360238,3.919649-4.422329,1.676167-1.061483,3.618418-1.593106,5.826694-1.593106,2.235639,0,4.18464.531623,5.847125,1.593106,1.662546,1.062091,2.969075,2.535836,3.91971,4.422329.94954,1.886493,1.424857,4.087412,1.424857,6.602209,0,2.488043-.475317,4.681604-1.424857,6.581717-.463034.925765-1.013751,1.747978-1.645642,2.474605l-3.971759-4.445252Z"/><path class="cls-1" d="M365.373656,135.242334c.786313-5.506658,1.178825-11.065646,1.186256-16.63069h0c-5.264952-154.29811-227.904798-154.195342-233.119824.000061h0c3.688704,143.811843,207.564812,158.723953,231.933568,16.630629ZM175.673635,190.394755l101.029681-101.030593,68.807286,68.807894c-2.61768,6.296478-5.838247,12.280902-9.593296,17.879393l-59.21399-59.213626-86.244501,86.244684c-5.320549-3.761433-10.269515-8.013689-14.78518-12.687752Z"/></svg>