<?xml version="1.0" encoding="UTF-8"?><svg id="Layer_1" xmlns="http://www.w3.org/2000/svg" viewBox="0 0 706 156"><path d="M137.182375,124.926908c.923174-1.16229,1.812697-2.351133,2.667552-3.567385h0C175.152151,73.698755,137.734349,1.058461,78.159408,2.717806,13.221966.724541-22.267954,85.458624,24.065183,130.536166l.000064-.000064c2.923625,3.014733,6.090608,5.789621,9.48025,8.283838h0c31.279443,23.962195,79.771746,17.458167,103.636878-13.893032ZM30.111196,124.49009L95.427696,59.173014l44.486888,44.487271c-1.692712,4.071799-3.772728,7.942472-6.201011,11.562885l-38.285877-38.285557-55.754088,55.754216c-3.441137-2.432499-6.641982-5.178764-9.562413-8.201739Z"/><path d="M204.283015,58.47597h14.641061l11.56461,25.461859h13.057282l-12.963682-27.979205c4.040365-1.67987,7.104229-4.118823,9.186418-7.321776,2.082188-3.201676,3.124496-7.072604,3.124496-11.611378,0-6.715904-2.160582-11.937794-6.481809-15.668227-4.321227-3.731775-10.337531-5.596352-18.046419-5.596352h-26.020964v68.176938h11.939008v-25.461859ZM204.283015,26.393148h14.081956c3.79247,0,6.74491.918425,8.860002,2.751376,2.112536,1.83423,3.170114,4.461659,3.170114,7.880945,0,3.420564-1.057578,6.093483-3.170114,8.020035-2.115092,1.929171-5.067531,2.891807-8.860002,2.891807h-14.081956v-21.544163Z"/><path d="M294.47978,73.445938c2.112536-3.638111,3.172606-7.849255,3.172606-12.638544,0-4.786733-1.06007-8.999219-3.172606-12.63733-2.115092-3.636833-5.022041-6.481809-8.720912-8.533649s-7.941641-3.077728-12.730929-3.077728c-4.723481,0-8.951109,1.025888-12.68282,3.077728-3.731775,2.05184-6.653866,4.896816-8.766402,8.533649-2.115092,3.638111-3.17267,7.850597-3.17267,12.63733,0,4.789288,1.057578,9.000433,3.17267,12.638544,2.112536,3.636897,5.034628,6.481873,8.766402,8.533649,3.731711,2.05184,7.959339,3.077792,12.68282,3.077792,4.789288,0,9.032058-1.025952,12.730929-3.077792,3.698871-2.051776,6.60582-4.896752,8.720912-8.533649ZM279.929763,73.119586c-1.988589,1.181525-4.288324,1.770978-6.901825,1.770978-2.610945,0-4.895538-.589453-6.853715-1.770978-1.958241-1.181525-3.514164-2.828556-4.662785-4.943584-1.151177-2.112536-1.725488-4.570464-1.725488-7.368608,0-2.858904.574311-5.330696,1.725488-7.414162,1.148622-2.082188,2.704545-3.714013,4.662785-4.896816,1.958177-1.180247,4.24277-1.770978,6.853715-1.770978,2.613501,0,4.913236.590731,6.901825,1.770978,1.991144,1.182803,3.544512,2.814628,4.665341,4.896816,1.11821,2.083466,1.677379,4.555258,1.677379,7.414162,0,2.798144-.559169,5.256072-1.677379,7.368608-1.120829,2.115028-2.674197,3.762059-4.665341,4.943584Z"/><path d="M337.279642,82.865109c3.17005-1.523019,5.765853-3.636833,7.787282-6.341442,2.018937-2.704545,3.278919-5.860731,3.777328-9.467216h-11.471011c-.622356,2.550249-1.882339,4.509704-3.777265,5.875936-1.897481,1.368724-4.275674,2.051776-7.134577,2.051776-2.426302,0-4.523632-.574311-6.297166-1.725424-1.770978-1.149899-3.12456-2.781724-4.055571-4.896816-.933567-2.112536-1.399072-4.63116-1.399072-7.554529,0-2.920878.495853-5.439501,1.492671-7.554593.991771-2.112536,2.40854-3.744361,4.24277-4.895538,1.834293-1.149836,3.931624-1.725424,6.294674-1.725424,2.734893,0,5.022041.669188,6.856271,2.005009,1.831674,1.337098,3.091657,3.310481,3.777265,5.922704h11.377347c-.622356-5.533101-2.937297-9.932721-6.947315-13.197713-4.010081-3.26365-9.15607-4.896752-15.435474-4.896752-4.538838,0-8.533713,1.042308-11.984626,3.124496-3.450848,2.084744-6.155457,4.960068-8.113634,8.627313-1.960796,3.669737-2.939853,7.867017-2.939853,12.590498,0,4.913236.948709,9.187632,2.846254,12.824529,1.894925,3.636833,4.584328,6.467881,8.065588,8.486818,3.483816,2.020215,7.554529,3.030961,12.21987,3.030961,4.040365,0,7.645637-.76151,10.818242-2.284593Z"/><polygon points="386.113504 37.864159 368.206238 57.170497 368.206238 14.54774 356.919935 14.54774 356.919935 83.937829 368.206238 83.937829 368.206238 71.533251 374.920864 64.539105 386.95098 83.937829 400.008261 83.937829 382.847299 56.144609 400.382659 37.864159 386.113504 37.864159"/><path d="M427.496468,71.464314l-11.862978-33.600155h-12.032671l18.527897,48.05408-1.273336,3.428742c-.622356,1.802604-1.38393,3.171328-2.284593,4.103617-.903219.933567-1.912687,1.569851-3.030897,1.912687-1.120829.34028-2.426302.512337-3.918973.512337h-6.808225v9.420384c1.244777.373184,2.565391.636285,3.964527.791922,1.399072.155573,2.906949.234031,4.523632.234031,3.792407,0,6.962521-.965192,9.51277-2.891807,2.547694-1.927829,4.662722-5.005558,6.342656-9.233185l22.570052-56.332807h-11.751809l-12.478051,33.600155Z"/><polygon points="496.960095 15.760891 485.021023 15.760891 485.021023 83.937829 487.072927 83.937829 496.960095 83.937829 525.404741 83.937829 525.404741 72.932387 496.960095 72.932387 496.960095 15.760891"/><rect x="532.109273" y="37.864159" width="11.379903" height="46.07367"/><path d="M537.705561,14.920924c-1.927829,0-3.559718.652704-4.895538,1.959455-1.338376,1.305473-2.006286,2.922155-2.006286,4.84877,0,1.929107.66791,3.560932,2.006286,4.896752,1.335821,1.338376,2.967709,2.005073,4.895538,2.005073,1.927957,0,3.559718-.666696,4.898094-2.005073,1.335821-1.335821,2.003731-2.967645,2.003731-4.896752,0-1.926615-.66791-3.543298-2.003731-4.84877-1.338376-1.30675-2.970137-1.959455-4.898094-1.959455Z"/><path d="M580.533342,36.465087c-3.109418,0-5.983464.653982-8.627249,1.959455-2.643913,1.305473-4.678055,3.109354-6.107411,5.409153l-.933567-5.969536h-10.54v46.07367h11.379903v-24.809091c0-3.730497.994262-6.714626,2.982787-8.953665,1.991081-2.237761,4.758941-3.357313,8.300897-3.357313,2.985471,0,5.348393.948772,7.089024,2.844976,1.74063,1.897545,2.611073,4.772869,2.611073,8.627313v25.64778h11.379903v-28.352325c0-5.906284-1.477657-10.570348-4.430033-13.990912-2.955059-3.418009-7.32184-5.129505-13.105327-5.129505Z"/><path d="M639.740068,62.020482c0,4.352853-.872743,7.601361-2.610817,9.745587-1.743186,2.145376-4.417382,3.218096-8.02259,3.218096-3.170242,0-5.59386-.962637-7.273795-2.890466-1.679934-1.926615-2.517282-5.067595-2.517282-9.420448v-24.809091h-11.379903v28.819108c0,5.596352,1.492608,10.073153,4.477951,13.430465,2.982915,3.357313,7.11688,5.035969,12.404705,5.035969,3.106735,0,6.028954-.684394,8.766274-2.05184,2.73502-1.366168,4.786797-3.138424,6.155457-5.31549l.840031,6.155457h10.537444v-46.07367h-11.377475v24.156322Z"/><polygon points="703 37.864159 690.221153 37.864159 680.430076 53.533664 670.262046 37.864159 657.019994 37.864159 672.875419 61.367777 657.019994 83.937829 669.98374 83.937829 679.590045 68.735107 689.474657 83.937829 702.532067 83.937829 687.329218 61.274178 703 37.864159"/><polygon points="192.476643 106.946296 192.344007 106.946296 192.344007 138.483046 195.515079 138.483046 195.515079 124.608734 208.421516 124.608734 208.421516 121.745358 195.515079 121.745358 195.515079 109.85331 210.931897 109.85331 210.931897 106.946296 195.515079 106.946296 192.476643 106.946296"/><path d="M235.465173,121.745358c1.130349-1.526406,1.69546-3.420181,1.69546-5.681965,0-2.818589-.917594-5.042742-2.752846-6.672522-1.835252-1.629716-4.338414-2.444575-7.509486-2.444575h-11.760626v31.53675h3.171008v-13.081496h9.20616l6.430505,13.081496h3.523556l-6.738776-13.610253c2.026412-.55738,3.60476-1.599816,4.735046-3.127435ZM226.986725,122.53811h-8.678042v-12.729013h8.589617c2.143523,0,3.846138.543643,5.10906,1.629716,1.261772,1.086712,1.893839,2.657905,1.893839,4.713003,0,1.967249-.609387,3.523492-1.828096,4.668727-1.218709,1.145299-2.914169,1.717566-5.086379,1.717566Z"/><path d="M263.443228,108.465482c-2.246323-1.394344-4.852221-2.092155-7.817757-2.092155-2.936914,0-5.535656.697811-7.796226,2.092155-2.261784,1.394983-4.030143,3.318659-5.30744,5.77039-1.277233,2.451794-1.916457,5.278753-1.916457,8.478512,0,3.200909.630854,6.020137,1.893775,8.456981,1.262922,2.437994,3.032494,4.353939,5.30744,5.748283,2.276096,1.394919,4.881993,2.092155,7.818908,2.092155,2.9357,0,5.534442-.697236,7.796226-2.092155,2.260634-1.394344,4.030143-3.31029,5.307376-5.748283,1.277297-2.436844,1.915306-5.256072,1.915306-8.456981,0-3.199759-.63801-6.026718-1.915306-8.478512-1.277233-2.45173-3.039586-4.375406-5.285845-5.77039ZM265.887803,129.630009c-.998863,1.99715-2.37174,3.552818-4.118567,4.668791s-3.79477,1.673929-6.143765,1.673929c-2.320372,0-4.361095-.557955-6.122298-1.673929-1.762353-1.115974-3.13523-2.671641-4.118567-4.668791-.984487-1.996575-1.475613-4.301357-1.475613-6.915625,0-2.642379.491126-4.954956,1.475613-6.937156.983337-1.9822,2.356214-3.530711,4.118567-4.646685,1.761203-1.115335,3.801926-1.673929,6.122298-1.673929,2.348995,0,4.396938.558594,6.143765,1.673929,1.746828,1.115974,3.119704,2.664485,4.118567,4.646685.997713,1.9822,1.497144,4.294777,1.497144,6.937156,0,2.614268-.499431,4.91905-1.497144,6.915625Z"/><path d="M290.526306,134.739069l-11.495417-27.792773h-3.128074v31.53675h3.128074v-15.460391c0-2.407007-.022745-4.440575-.066893-6.100192-.044212-1.658403-.109955-2.781533-.19838-3.369388l10.263546,24.929971h3.038436l10.263546-25.062033c-.059738.558019-.10395,1.13808-.132636,1.739672-.029837.602167-.051368,1.285028-.065679,2.047943-.015525.764065-.029901,1.659617-.044212,2.687166-.015525,1.028124-.022745,2.231947-.022745,3.611341v14.97591h3.128074v-31.53675h-3.171072l-11.496567,27.792773Z"/><path d="M344.480984,134.034166c-1.849627,1.262922-4.022987,1.89435-6.518993,1.89435-2.290471,0-4.301357-.550799-6.033874-1.651822-1.732452-1.101023-3.083798-2.649535-4.052824-4.646685-.969026-1.996575-1.452932-4.301357-1.452932-6.915625,0-2.671641.47675-4.999168,1.431401-6.981368.9535-1.981625,2.304846-3.523556,4.052888-4.624579,1.745614-1.101023,3.76487-1.651822,6.055341-1.651822,2.496006,0,4.639529.646379,6.430569,1.937988,1.79104,1.292822,3.024061,3.083223,3.70034,5.373694h3.392133c-.412221-2.114197-1.24861-3.942293-2.511532-5.483586-1.262922-1.541931-2.818589-2.737959-4.668152-3.589874-1.850841-.85134-3.920251-1.277297-6.210722-1.277297-2.93685,0-5.535656.682861-7.796226,2.047943-2.261784,1.365721-4.022987,3.275022-5.285909,5.726177-1.262922,2.452433-1.893775,5.293128-1.893775,8.522724,0,3.23081.623698,6.064285,1.872244,8.501129,1.247396,2.437483,2.979912,4.338414,5.197484,5.704135,2.216422,1.365082,4.793633,2.047943,7.729333,2.047943,2.261784,0,4.34557-.418227,6.254934-1.255191,1.908087-.836964,3.516336-2.004306,4.82347-3.502025,1.305984-1.497144,2.194891-3.229596,2.664485-5.197484h-3.392133c-.675066,2.085574-1.937988,3.759503-3.787551,5.021275Z"/><rect x="356.509247" y="106.946296" width="3.171072" height="31.53675"/><path d="M393.128223,131.171365c1.277297-2.436844,1.915306-5.256072,1.915306-8.456981,0-3.199759-.63801-6.026718-1.915306-8.478512-1.277233-2.45173-3.03965-4.375406-5.285909-5.77039-2.246259-1.394344-4.852157-2.092155-7.817694-2.092155-2.936914,0-5.535656.697811-7.796226,2.092155-2.261848,1.394983-4.030143,3.318659-5.30744,5.77039-1.277297,2.451794-1.91652,5.278753-1.91652,8.478512,0,3.200909.630918,6.020137,1.893839,8.456981,1.262922,2.437994,3.03243,4.353939,5.307376,5.748283,2.276159,1.394919,4.882057,2.092155,7.818971,2.092155,2.935636,0,5.534378-.697236,7.796226-2.092155.218058-.134489.409793-.29709.618715-.441291l3.388683,3.810679,2.159048-1.9822-3.314251-3.709285c.953309-.998926,1.778262-2.134067,2.45518-3.426187ZM384.384502,127.559385l-2.113622,1.9822,4.098122,4.608415c-.069449.046576-.129953.10363-.200616.148801-1.746828,1.115974-3.79477,1.673929-6.143765,1.673929-2.320372,0-4.361159-.557955-6.122298-1.673929-1.762353-1.115974-3.13523-2.671641-4.118567-4.668791-.984551-1.996575-1.475613-4.301357-1.475613-6.915625,0-2.642379.491062-4.954956,1.475613-6.937156.983337-1.9822,2.356214-3.530711,4.118567-4.646685,1.761139-1.115335,3.801926-1.673929,6.122298-1.673929,2.348995,0,4.396938.558594,6.143765,1.673929,1.746828,1.115974,3.119704,2.664485,4.118567,4.646685.997649,1.9822,1.49708,4.294777,1.49708,6.937156,0,2.614268-.499431,4.91905-1.49708,6.915625-.486525.972731-1.065117,1.836657-1.72913,2.600148l-4.173321-4.670772Z"/></svg>