<?xml version="1.0" encoding="utf-8"?>
<!-- Generator: Adobe Illustrator 28.0.0, SVG Export Plug-In . SVG Version: 6.00 Build 0)  -->
<svg version="1.1" id="Layer_1" xmlns="http://www.w3.org/2000/svg" xmlns:xlink="http://www.w3.org/1999/xlink" x="0px" y="0px"
	 viewBox="0 0 688.2 370.9" style="enable-background:new 0 0 688.2 370.9;" xml:space="preserve">
<style type="text/css">
	.st0{fill:#229529;}
	.st1{fill:url(#SVGID_1_);}
	.st2{fill:#0080B7;}
</style>
<g>
	<path class="st0" d="M344.5,45.1c-52.6,0-95.4,42.8-95.4,95.4c0,52.6,42.8,95.4,95.4,95.4c52.6,0,95.4-42.8,95.4-95.4
		C439.9,87.9,397.1,45.1,344.5,45.1z M435.9,140.5c0,50.4-41,91.4-91.4,91.4s-91.4-41-91.4-91.4s41-91.4,91.4-91.4
		S435.9,90.1,435.9,140.5z"/>
	<radialGradient id="SVGID_1_" cx="344.4878" cy="140.5268" r="135" gradientUnits="userSpaceOnUse">
		<stop  offset="0" style="stop-color:#0080B7"/>
		<stop  offset="0.2049" style="stop-color:#0784B9"/>
		<stop  offset="0.5087" style="stop-color:#1B8DBF"/>
		<stop  offset="0.78" style="stop-color:#3399C5"/>
		<stop  offset="0.8023" style="stop-color:#3A9DC7;stop-opacity:0.8987"/>
		<stop  offset="0.8356" style="stop-color:#4FA7CD;stop-opacity:0.7471"/>
		<stop  offset="0.8759" style="stop-color:#70B8D6;stop-opacity:0.5639"/>
		<stop  offset="0.9216" style="stop-color:#9FCFE4;stop-opacity:0.3562"/>
		<stop  offset="0.9712" style="stop-color:#D9ECF4;stop-opacity:0.1308"/>
		<stop  offset="1" style="stop-color:#FFFFFF;stop-opacity:0"/>
	</radialGradient>
	<path class="st1" d="M344.5,5.5c-74.6,0-135,60.4-135,135c0,74.6,60.4,135,135,135s135-60.4,135-135C479.5,66,419,5.5,344.5,5.5z
		 M344.5,240.4c-38.1,0-71.3-21.4-88.1-52.8c-7.7-14-12.1-30.1-12.1-47.1c0-17.1,4.4-33.1,12.1-47.1c16.8-31.4,50-52.8,88.1-52.8
		s71.3,21.4,88.1,52.8c7.7,14,12.1,30.1,12.1,47.1c0,17.1-4.4,33.1-12.1,47.1C415.8,219.1,382.6,240.4,344.5,240.4z"/>
	<g>
		<polygon class="st0" points="372.6,151.8 361.3,163 327.6,163.1 305.1,185.5 395.1,185.5 395.1,151.8 383.9,140.5 395.1,129.3 
			395.1,98.3 395.1,95.5 338.8,151.8 		"/>
		<polygon class="st2" points="361.1,118.1 383.9,95.5 294.1,95.5 293.9,185.5 350.1,129.3 316.4,129.3 327.5,118.1 		"/>
	</g>
</g>
<g>
	<polygon points="7.5,365.2 23.9,365.2 23.9,339.5 56.6,339.5 56.6,326.3 23.9,326.3 23.9,307.6 60.9,307.6 60.9,294.5 7.5,294.5 	
		"/>
	<path d="M136.2,333.6c0,6.7-1.4,11.5-4.1,14.5c-2.8,3-6.6,4.5-11.6,4.5c-4.9,0-8.8-1.5-11.5-4.5c-2.8-3-4.1-7.8-4.1-14.5v-39.1
		H88.2V334c0,10.4,2.8,18.5,8.5,24.1c5.7,5.6,13.5,8.4,23.6,8.4c10,0,17.8-2.8,23.5-8.4c5.7-5.6,8.5-13.6,8.5-24.1v-39.5h-16.1
		V333.6z"/>
	<polygon points="240.6,305.1 240.6,294.5 181,294.5 181,307.8 219.1,307.8 180.2,354.6 180.2,365.2 242.1,365.2 242.1,351.9 
		201.9,351.9 	"/>
	<polygon points="329.5,305.1 329.5,294.5 269.9,294.5 269.9,307.8 308,307.8 269.1,354.6 269.1,365.2 331,365.2 331,351.9 
		290.8,351.9 	"/>
	<path d="M412.2,329c-0.6-0.3-1.3-0.5-1.9-0.7c2.7-1.4,5-3.4,6.6-5.8c1.8-2.7,2.7-5.9,2.7-9.7c0-5.5-2.2-10-6.7-13.3
		c-4.5-3.4-11.2-5.1-20.1-5.1h-34.6v70.8h36.6c9.3,0,16.3-1.7,21.1-5.1c4.8-3.4,7.2-8.1,7.2-14.2c0-4.1-1-7.6-2.9-10.4
		C418.3,332.7,415.6,330.5,412.2,329z M390.8,306.8c4,0,7,0.7,9.2,2c2.1,1.3,3.2,3.4,3.2,6.3c0,2.8-1.1,4.9-3.2,6.3
		c-2.1,1.4-5.2,2.1-9.2,2.1h-16.3v-16.7H390.8z M403.4,350.8c-2.2,1.4-5.4,2.1-9.6,2.1h-19.2v-17.5h19.2c4.2,0,7.4,0.7,9.6,2.1
		c2.2,1.4,3.3,3.6,3.3,6.7C406.7,347.2,405.6,349.4,403.4,350.8z"/>
	<path d="M476.8,294.5l-31.4,70.8h16.8l6.3-15.2h32.8l6.3,15.2h17.2L493,294.5H476.8z M473.6,337.6l11.2-27l11.2,27H473.6z"/>
	<polygon points="566.9,294.5 550.4,294.5 550.4,365.2 602.2,365.2 602.2,351.9 566.9,351.9 	"/>
	<polygon points="646.2,351.9 646.2,294.5 629.7,294.5 629.7,365.2 681.5,365.2 681.5,351.9 	"/>
</g>
</svg>
