<?xml version="1.0" encoding="UTF-8"?><svg id="Layer_1" xmlns="http://www.w3.org/2000/svg" viewBox="0 0 679.90625 377.22393"><path d="M285.94641,211.13653c-.38505-.21294-.76099-.44008-1.14331-.65767l1.14331.65767Z"/><path d="M407.80981,33.40348c-84.21917-66.82959-203.80986,12.37955-171.504,117.25555l.00018-.00009c1.42563,4.48959,3.14524,8.84698,5.13241,13.05403l-.00018-.00009c9.23775,19.55017,24.554,36.09737,43.36487,46.76599l-.00018-.00009c.38232.21767.75826.44482,1.14349.65776,118.78966,59.67325,218.96998-90.66889,121.86341-177.73305ZM296.61595,90.31866l29.78396,29.79894-12.65964,12.66715-17.12432-17.13178-46.11377,46.13584c-2.91264-5.81604-5.26319-11.95837-6.96313-18.36666l53.0769-53.10348ZM277.20721,194.54707l104.17791-104.2284,52.7474,52.77346c-1.67935,6.42451-4.01552,12.58278-6.91304,18.41632l-45.83436-45.85548-88.79105,88.83281c-5.4528-2.82957-10.60033-6.16164-15.38686-9.93872Z"/><rect x="220.30598" y="260.45272" width="6.13672" height="108"/><path d="M20.35589,350.68086H7.68723v-72.35262c11.90153.80124,38.08058-3.11143,46.76604,5.93877,11.09967,9.32847,8.7078,31.7531-6.18574,36.72048l13.75767,29.69337h-13.85594l-12.27397-27.02077h-15.5394v27.02077ZM20.35589,289.61146v22.86367c9.51912-.33356,28.36333,3.12454,27.71283-11.58094.63363-14.5633-18.35963-10.86128-27.71283-11.28273Z"/><path d="M84.71086,278.32824v72.35262h-12.66866v-72.35262h12.66866ZM74.21862,350.68086v-11.67952h40.68018v11.67952h-40.68018Z"/><path d="M151.7787,351.86895c-29.64806,1.76032-42.50656-33.91505-30.33683-57.01231,12.38967-26.31942,59.44453-22.76982,63.29564,7.81978h-13.36137c-8.9978-24.14037-43.43518-13.55943-41.07515,11.87786-2.06469,25.58054,32.05598,35.63611,41.46984,11.97575h13.16483c-2.68077,15.72435-17.458,25.68041-33.15695,25.33892Z"/><path d="M268.95679,350.91723h-7.26155v-72.20679h7.26155v32.1706h39.02755v-32.1706h7.15978v72.20679h-7.15978v-33.27937h-39.02755v33.27937Z"/><path d="M343.10864,352.12776c-14.37934,1.46692-22.30822-16.16364-11.69784-25.21277,5.65872-5.6581,21.61214-5.09743,29.54805-6.05014,3.26451-17.54532-25.88097-19.45948-26.42324-3.83267h-6.35221c-.32042-17.95796,28.59081-21.80716,37.06115-8.21878,4.7689,6.10261,1.78499,34.57185,2.57207,42.10382h-5.84995l-.90769-8.57221c-3.17564,6.67744-10.48669,9.81152-17.95034,9.78274ZM344.72214,346.47971c11.71175.31723,17.07149-9.66839,16.23672-20.37058-5.87926.79382-20.41592.21403-24.30404,4.53762-6.89558,6.5162-1.29538,16.86914,8.06732,15.83297Z"/><path d="M405.21919,301.50209v6.25209c-26.14604-2.77507-16.99104,27.49652-18.55602,43.16305h-6.95789v-48.81029h6.55411l.60568,9.58085h-.7058c1.61896-8.40998,11.08112-12.25378,19.05993-10.1857Z"/><path d="M430.51971,352.12776c-19.75657.81858-27.23818-23.46216-19.86536-38.72587,5.95542-15.22543,31.07489-17.64107,38.11936-2.01694v-33.98599h6.95789v73.51827h-6.0502l-.7058-9.98381c-3.43014,7.55784-10.34603,11.18212-18.45589,11.19434ZM431.73106,345.77391c22.614.92896,22.5628-39.58497-.00029-38.72547-22.33331-.74048-22.38492,39.53748.00029,38.72547Z"/><path d="M489.03231,352.12776c-25.075,1.30218-32.2715-36.01828-12.70546-48.05488,17.22536-10.08008,37.01728,3.36637,34.38834,23.3469h-41.75227l.20189-5.04238h34.59085c-.10424-23.3699-34.22612-18.80585-31.86675,3.42979-.00102,6.45308,1.4943,11.46263,4.48657,15.02529,6.60904,8.29724,25.10153,7.23739,27.68384-4.53847h6.65587c-2.65401,10.63712-10.64486,15.87427-21.68288,15.83376Z"/><path d="M527.37375,350.91723h-6.95789v-48.81029h6.0502l1.00782,8.47126c4.9468-11.3219,24.43158-12.92455,31.26406-4.23533,7.45348,7.61654,3.50833,34.65538,4.43637,44.57436h-6.95789v-28.33794c.06944-10.15199-3.8504-15.21743-13.21168-15.4301-21.58778-.54896-14.47789,30.39213-15.63098,43.76803Z"/><path d="M596.08108,352.12776c-25.075,1.30218-32.2715-36.01828-12.70546-48.05488,17.22536-10.08008,37.01728,3.36637,34.38834,23.3469h-41.75227l.20189-5.04238h34.59085c-.10424-23.3699-34.22612-18.80585-31.86675,3.42979-.00102,6.45308,1.4943,11.46263,4.48657,15.02529,6.60904,8.29724,25.10153,7.23739,27.68384-4.53847h6.65587c-2.65401,10.63712-10.64486,15.87427-21.68288,15.83376Z"/><path d="M647.00713,352.12776c-19.75657.81858-27.23818-23.46216-19.86536-38.72587,5.95542-15.22543,31.07489-17.64107,38.11936-2.01694v-33.98599h6.95789v73.51827h-6.0502l-.7058-9.98381c-3.43014,7.55784-10.34603,11.18212-18.45589,11.19434ZM648.21848,345.77391c22.614.92896,22.5628-39.58497-.00029-38.72547-22.33331-.74048-22.38492,39.53748.00029,38.72547Z"/></svg>