<?xml version="1.0" encoding="UTF-8"?><svg id="a" xmlns="http://www.w3.org/2000/svg" viewBox="0 0 864.25828 208.8"><path d="M300.13082,51.35133l-38.93427,105.99781h12.74897l10.16589-27.59256h46.51708l10.16589,27.59256h13.04538l-39.37841-105.99781h-14.33052ZM307.25078,66.34658c.11522.33778.22847.68048.33581,1.03106l18.95702,51.21252h-38.49605l18.80635-51.1879c.13393-.33581.26786-.6923.39687-1.05568Z"/><path d="M399.60742,83.15579c-11.51504,0-20.55433,4.77028-25.82291,13.52202l-.83115-11.63419h-10.66025v102.94795h12.03697v-41.34699c5.32372,8.06043,14.15819,12.44762,25.27734,12.44762,20.37412,0,33.53866-14.98836,33.53866-38.18584,0-22.58003-13.4777-37.75057-33.53866-37.75057ZM397.86436,94.32222c14.03213,0,23.09901,10.54897,23.09901,26.87465s-9.06687,26.87465-23.09901,26.87465c-14.20841,0-23.38853-10.54897-23.38853-26.87465s9.18012-26.87465,23.38853-26.87465Z"/><path d="M483.04588,83.15579c-11.51504,0-20.55433,4.77028-25.82291,13.52202l-.83115-11.63419h-10.66025v102.94795h12.03697v-41.34699c5.32372,8.06043,14.15819,12.44762,25.27734,12.44762,20.37314,0,33.53768-14.98836,33.53768-38.18584,0-22.58003-13.4777-37.75057-33.53768-37.75057ZM481.30282,94.32222c14.03115,0,23.09901,10.54897,23.09901,26.87465s-9.06786,26.87465-23.09901,26.87465c-14.20841,0-23.38853-10.54897-23.38853-26.87465s9.18012-26.87465,23.38853-26.87465Z"/><polygon points="545.52035 62.82402 533.62814 62.82402 533.62814 85.04362 519.53987 85.04362 519.53987 95.48327 533.62814 95.48327 533.62814 157.34914 545.52035 157.34914 545.52035 95.48327 559.60664 95.48327 559.60664 85.04362 545.52035 85.04362 545.52035 62.82402"/><path d="M596.27789,83.15579c-17.88952,0-29.90778,9.80152-29.90778,24.38907v1.00842h11.16544v-1.00842c0-8.86499,6.72605-13.94941,18.45281-13.94941,11.66571,0,17.5803,5.76884,17.5803,17.14503v1.39346l-22.30921,1.812c-17.04064,1.35801-27.21342,10.09498-27.21342,23.37081,0,13.22855,9.74539,21.77546,24.82631,21.77546,10.96848,0,20.13876-4.39704,25.17098-11.91092l1.07735,10.16786h10.34019v-46.4639c0-17.62264-10.6376-27.72944-29.18298-27.72944ZM613.56867,121.70502v2.68648c0,15.14297-8.5735,24.55057-22.37421,24.55057-9.51101,0-14.96472-4.34288-14.96472-11.91584,0-8.0171,6.10958-12.7923,17.65711-13.8076l19.68182-1.51361Z"/><rect x="641.24099" y="85.04362" width="12.03795" height="72.30552"/><path d="M647.1871,50.77031c-4.5615,0-8.41593,3.92041-8.41593,8.5607s3.77565,8.41495,8.41593,8.41495,8.55971-3.85345,8.55971-8.41495c0-4.64028-3.91943-8.5607-8.55971-8.5607Z"/><path d="M705.02521,83.15579c-9.68433,0-18.41145,4.53885-23.45747,12.02318l-1.20537-10.13536h-10.6179v72.30552h12.03795v-37.75057c0-15.82739,8.03778-25.27636,21.49972-25.27636,12.29203,0,18.01754,6.73984,18.01754,21.2102v41.81673h12.03598v-43.99506c0-19.75568-9.78872-30.19829-28.31046-30.19829Z"/><path d="M801.11614,135.01038c-2.48362,8.82954-9.57797,13.49641-20.52085,13.49641-14.1316,0-22.75039-9.09248-23.77063-24.99471h55.85674v-5.9461c0-20.58191-13.2453-34.41019-32.95863-34.41019-20.43025,0-34.69972,15.64324-34.69972,38.04108,0,22.66669,14.23598,37.89533,35.42649,37.89533,16.89292,0,28.32819-8.36669,32.20035-23.55988l.32104-1.25756h-11.64798l-.2068.73563ZM779.72277,93.7412c12.37869,0,20.49131,8.00725,20.90492,20.49229h-43.41306c2.03062-12.85729,10.37565-20.49229,22.50814-20.49229Z"/><path d="M863.48031,84.19867c-2.65497-.62435-4.62453-.75237-6.76544-.75237-8.45729,0-15.52408,3.6171-19.28791,9.65676l-.53572-8.05944h-11.39194v72.30552h12.03795v-41.08996c0-12.79722,7.92748-21.06642,20.19391-21.06642h6.52712v-10.81092l-.77798-.18317Z"/><path d="M104.4,11.09566c51.44816,0,93.30436,41.85596,93.30436,93.30434s-41.8562,93.30433-93.30436,93.30433S11.09564,155.84839,11.09564,104.4,52.95184,11.09566,104.4,11.09566M104.4,0C46.74156,0,0,46.74181,0,104.4s46.74156,104.4,104.4,104.4,104.4-46.74181,104.4-104.4S162.05867,0,104.4,0h0Z"/><path d="M98.8938,60.32963v-11.19513c-19.31027,1.91004-35.69861,13.77108-44.06665,30.34953l10.66739,3.46641c6.73556-12.1674,19.01106-20.83094,33.39925-22.62081Z"/><path d="M59.95066,104.40098c0-3.84173.54128-7.55143,1.46206-11.11044l-10.56076-3.43093c-1.2631,4.64353-1.99696,9.50378-1.99696,14.54137,0,12.60968,4.27218,24.21265,11.37911,33.54601l6.14428-10.64153c-4.05153-6.70033-6.42772-14.52066-6.42772-22.90448Z"/><path d="M143.07767,82.57511l10.70828-3.47921c-8.41507-16.35387-24.67118-28.0366-43.79651-29.95647v11.20303c14.2003,1.79378,26.32164,10.28987,33.08823,22.23265Z"/><path d="M157.84166,89.44491l-10.56101,3.43093c.99146,3.68312,1.56918,7.5337,1.56918,11.52515,0,8.46555-2.42224,16.35881-6.5474,23.10148l6.13222,10.62087c7.18745-9.36295,11.51084-21.03387,11.51084-33.72236,0-5.1873-.7676-10.18941-2.10383-14.95607Z"/><path d="M154.22232,170.21443l-49.90286-86.42865-30.48619,52.80284c-.00049-.00098-.00123-.00198-.00173-.00198l-5.66849,9.81804c.00049.00099.00148.00099.00197.00099l-13.71326,23.75186h12.8132l10.03224-17.37661c15.75819,9.41879,38.30047,9.44924,54.08761.07292l9.99115,17.30369,12.84635.05689ZM104.40025,148.85059c-7.8356,0-15.17057-2.08441-21.56185-5.66703l21.48107-37.20649,21.52049,37.2725c-6.36221,3.54126-13.65334,5.60102-21.43971,5.60102Z"/></svg>