<?xml version="1.0" encoding="UTF-8"?><svg id="a" xmlns="http://www.w3.org/2000/svg" viewBox="0 0 273.6 273.6"><path d="M136.8,17.08937c66.00864,0,119.71066,53.70172,119.71066,119.71063s-53.70203,119.71063-119.71066,119.71063S17.08934,202.80893,17.08934,136.8,70.79136,17.08937,136.8,17.08937M136.8,2.8535C62.8235,2.8535,2.8535,62.82382,2.8535,136.8s59.97,133.9465,133.9465,133.9465,133.9465-59.97032,133.9465-133.9465S210.77681,2.8535,136.8,2.8535h0Z" fill="#fff"/><path d="M129.73549,80.25717v-14.36349c-24.77533,2.4506-45.80177,17.66847-56.53806,38.93883l13.6864,4.44745c8.6418-15.61093,24.39142-26.72636,42.85165-29.02279Z" fill="#fff"/><path d="M79.77095,136.80127c0-4.92899.69447-9.68858,1.87584-14.25483l-13.54959-4.40192c-1.62057,5.95771-2.56212,12.19347-2.56212,18.65676,0,16.17838,5.48126,31.06512,14.59953,43.03995l7.88318-13.65321c-5.19817-8.5966-8.24686-18.63019-8.24686-29.38673l.00002-.00002Z" fill="#fff"/><path d="M186.42393,108.79841l13.73886-4.46386c-10.79666-20.98222-31.65344-35.9713-56.19147-38.43453v14.37363c18.21915,2.30144,33.771,13.20203,42.45261,28.52476Z" fill="#fff"/><path d="M205.36631,117.61244l-13.5499,4.40192c1.27206,4.7255,2.01328,9.66583,2.01328,14.78691,0,10.8614-3.10776,20.98856-8.40039,29.6395l7.86771,13.62671c9.22159-12.01279,14.76855-26.98672,14.76855-43.2662,0-6.65537-.98486-13.07314-2.69925-19.18883Z" fill="#fff"/><path d="M200.72267,221.24075l-64.026-110.88905-39.11417,67.7467c-.00063-.00127-.00159-.00253-.00221-.00253l-7.27275,12.59666c.00063.00127.00191.00127.00253.00127l-17.59428,30.47394h16.43948l12.87149-22.2944c20.21794,12.08443,49.13997,12.1235,69.3951.09357l12.81876,22.20085,16.48203.073h.00003ZM136.80031,193.83067c-10.05319,0-19.46402-2.67433-27.66412-7.27087l27.56049-47.7364,27.61105,47.82109c-8.16278,4.54349-17.51743,7.18619-27.50742,7.18619Z" fill="#fff"/></svg>