<?xml version="1.0" encoding="UTF-8"?><svg id="a" xmlns="http://www.w3.org/2000/svg" viewBox="0 0 579.45557 432"><path d="M37.41024,300.70839L0,402.55704h12.24992l9.76796-26.51248h44.69622l9.76796,26.51248h12.53474l-37.83699-101.84865h-13.76957ZM44.2515,315.11667c.11071.32456.21953.65385.32267.99071l18.21497,49.20786H25.79997l18.0702-49.1842c.12869-.32267.25738-.6652.38133-1.01436Z"/><path d="M132.99294,331.2679c-11.06429,0-19.74976,4.58355-24.8121,12.99271l-.79862-11.17879h-10.24296v98.91817h11.5658v-39.72851c5.11533,7.74491,13.60398,11.96038,24.28789,11.96038,19.5766,0,32.22583-14.40165,32.22583-36.6911,0-21.69616-12.95013-36.27287-32.22583-36.27287ZM131.31811,341.99723c13.48286,0,22.19482,10.13604,22.19482,25.82268s-8.71196,25.82268-22.19482,25.82268c-13.65224,0-22.47301-10.13604-22.47301-25.82268s8.82078-25.82268,22.47301-25.82268Z"/><path d="M213.1653,331.2679c-11.06429,0-19.74976,4.58355-24.8121,12.99271l-.79862-11.17879h-10.24296v98.91817h11.5658v-39.72851c5.11533,7.74491,13.60398,11.96038,24.28789,11.96038,19.57565,0,32.22488-14.40165,32.22488-36.6911,0-21.69616-12.95013-36.27287-32.22488-36.27287ZM211.49047,341.99723c13.48192,0,22.19482,10.13604,22.19482,25.82268s-8.71291,25.82268-22.19482,25.82268c-13.65224,0-22.47301-10.13604-22.47301-25.82268s8.82078-25.82268,22.47301-25.82268Z"/><polygon points="273.19427 311.73199 261.76757 311.73199 261.76757 333.08183 248.23077 333.08183 248.23077 343.11284 261.76757 343.11284 261.76757 402.55704 273.19427 402.55704 273.19427 343.11284 286.72917 343.11284 286.72917 333.08183 273.19427 333.08183 273.19427 311.73199"/><path d="M321.96497,331.2679c-17.18925,0-28.73707,9.41785-28.73707,23.43439v.96894h10.72838v-.96894c0-8.51798,6.46277-13.40338,17.7305-13.40338,11.20907,0,16.89214,5.54303,16.89214,16.4739v1.33892l-21.43594,1.74107c-16.3736,1.30485-26.14818,9.69983-26.14818,22.45598,0,12.71074,9.36391,20.92309,23.85451,20.92309,10.53913,0,19.35045-4.22493,24.1857-11.44468l1.03518,9.76985h9.93544v-44.64513c0-16.93283-10.2212-26.64401-28.04065-26.64401ZM338.57891,368.30816v2.58132c0,14.55021-8.2379,23.58957-21.4984,23.58957-9.13871,0-14.37894-4.17288-14.37894-11.44941,0-7.70328,5.87042-12.29156,16.96594-13.26712l18.9114-1.45436Z"/><rect x="365.16804" y="333.08183" width="11.56674" height="69.47521"/><path d="M370.88139,300.15011c-4.38295,0-8.0865,3.76695-8.0865,8.2256s3.62785,8.08555,8.0865,8.08555,8.22465-3.70261,8.22465-8.08555c0-4.45865-3.766-8.2256-8.22465-8.2256Z"/><path d="M426.4555,331.2679c-9.30525,0-17.69076,4.36118-22.53925,11.55255l-1.15819-9.73862h-10.20228v69.47521h11.56674v-36.27287c0-15.20784,7.72315-24.28694,20.65814-24.28694,11.81087,0,17.31226,6.47601,17.31226,20.37995v40.17986h11.56485v-42.27292c0-18.98236-9.40555-29.01621-27.20228-29.01621Z"/><path d="M518.78505,381.09271c-2.3864,8.48392-9.20305,12.96811-19.71759,12.96811-13.57843,0-21.85986-8.73656-22.84015-24.01632h53.67029v-5.71335c0-19.77625-12.72682-33.06325-31.6685-33.06325-19.63053,0-33.34144,15.0309-33.34144,36.552,0,21.77943,13.67873,36.41196,34.03976,36.41196,16.23167,0,27.21932-8.03919,30.9399-22.63766l.30847-1.20834h-11.19203l-.19871.70684ZM498.2291,341.43895c11.89414,0,19.6892,7.69381,20.08662,19.69015h-41.7137c1.95113-12.35401,9.9695-19.69015,21.62708-19.69015Z"/><path d="M578.70805,332.26996c-2.55104-.59991-4.44351-.72292-6.50062-.72292-8.12624,0-14.9164,3.47551-18.5329,9.27875l-.51475-7.74396h-10.94601v69.47521h11.56674v-39.48154c0-12.29629,7.61717-20.2418,19.40344-20.2418h6.27163v-10.38774l-.74752-.176Z"/><path d="M289.72778,14.23587c66.00863,0,119.71066,53.70172,119.71066,119.71064s-53.70203,119.71063-119.71066,119.71063-119.71066-53.70171-119.71066-119.71063S223.71915,14.23587,289.72778,14.23587M289.72778,0c-73.9765,0-133.94651,59.97032-133.94651,133.94651s59.97,133.94651,133.94651,133.94651,133.94651-59.97032,133.94651-133.94651S363.70458,0,289.72778,0h0Z"/><path d="M282.66326,77.40367v-14.36349c-24.77532,2.4506-45.80177,17.66847-56.53806,38.93883l13.6864,4.44745c8.6418-15.61093,24.39143-26.72636,42.85166-29.02279Z"/><path d="M232.69873,133.94777c0-4.92899.69447-9.68858,1.87584-14.25483l-13.54959-4.40192c-1.62057,5.95771-2.56212,12.19347-2.56212,18.65676,0,16.17838,5.48126,31.06513,14.59954,43.03995l7.88318-13.65321c-5.19817-8.59661-8.24685-18.63019-8.24685-29.38674Z"/><path d="M339.35172,105.94491l13.73886-4.46386c-10.79665-20.98222-31.65344-35.9713-56.19147-38.43453v14.37363c18.21916,2.30144,33.771,13.20203,42.45261,28.52476Z"/><path d="M358.2941,114.75894l-13.54991,4.40192c1.27206,4.7255,2.01328,9.66583,2.01328,14.78691,0,10.86141-3.10777,20.98856-8.4004,29.63949l7.86771,13.62671c9.22159-12.01279,14.76856-26.98672,14.76856-43.26621,0-6.65537-.98485-13.07314-2.69924-19.18883Z"/><path d="M353.65045,218.38725l-64.026-110.88905-39.11416,67.74671c-.00063-.00126-.00158-.00254-.00222-.00254l-7.27275,12.59666c.00063.00127.0019.00127.00253.00127l-17.59428,30.47394h16.43949l12.87149-22.29441c20.21795,12.08442,49.13998,12.1235,69.39509.09356l12.81877,22.20085,16.48203.073ZM289.7281,190.97718c-10.05318,0-19.46403-2.67433-27.66413-7.27088l27.56048-47.7364,27.61106,47.82109c-8.16279,4.54348-17.51741,7.18618-27.50741,7.18618Z"/></svg>