<?xml version="1.0" encoding="utf-8"?>
<!-- Generator: Adobe Illustrator 28.0.0, SVG Export Plug-In . SVG Version: 6.00 Build 0)  -->
<svg version="1.1" id="Layer_1" xmlns="http://www.w3.org/2000/svg" xmlns:xlink="http://www.w3.org/1999/xlink" x="0px" y="0px"
	 viewBox="0 0 604.3 144.6" style="enable-background:new 0 0 604.3 144.6;" xml:space="preserve">
<style type="text/css">
	.st0{fill:url(#SVGID_1_);}
</style>
<g>
	<path d="M75.6,23.1c-27.1,0-49.2,22.1-49.2,49.2s22.1,49.2,49.2,49.2s49.2-22.1,49.2-49.2C124.8,45.1,102.7,23.1,75.6,23.1z
		 M122.7,72.3c0,26-21.2,47.2-47.2,47.2S28.4,98.3,28.4,72.3s21.2-47.2,47.2-47.2S122.7,46.3,122.7,72.3z"/>
	
		<radialGradient id="SVGID_1_" cx="75.5001" cy="73.7" r="69.6719" gradientTransform="matrix(1 0 0 -1 0 146)" gradientUnits="userSpaceOnUse">
		<stop  offset="0" style="stop-color:#000000"/>
		<stop  offset="0.78" style="stop-color:#000000"/>
		<stop  offset="0.7991" style="stop-color:#070707;stop-opacity:0.9131"/>
		<stop  offset="0.8277" style="stop-color:#1C1C1C;stop-opacity:0.7831"/>
		<stop  offset="0.8623" style="stop-color:#3D3D3D;stop-opacity:0.6259"/>
		<stop  offset="0.9015" style="stop-color:#6C6C6C;stop-opacity:0.4476"/>
		<stop  offset="0.9447" style="stop-color:#A8A8A8;stop-opacity:0.2516"/>
		<stop  offset="0.9904" style="stop-color:#EFEFEF;stop-opacity:4.358071e-02"/>
		<stop  offset="1" style="stop-color:#FFFFFF;stop-opacity:0"/>
	</radialGradient>
	<path class="st0" d="M75.6,2.7C37.1,2.7,5.9,33.8,5.9,72.3s31.2,69.6,69.6,69.6s69.6-31.2,69.6-69.6C145.2,33.8,114,2.7,75.6,2.7z
		 M75.6,123.8c-19.7,0-36.8-11-45.4-27.2c-4-7.2-6.2-15.5-6.2-24.3s2.3-17.1,6.2-24.3C38.9,31.8,56,20.8,75.6,20.8
		s36.8,11,45.4,27.2c4,7.2,6.2,15.5,6.2,24.3s-2.3,17.1-6.2,24.3C112.3,112.8,95.2,123.8,75.6,123.8z"/>
	<g>
		<polygon points="90.1,78.1 84.3,83.9 66.8,83.9 55.3,95.5 101.7,95.5 101.7,78.1 95.9,72.3 101.7,66.5 101.7,50.5 101.7,49.1 
			72.7,78.1 		"/>
		<polygon points="84.1,60.8 95.9,49.1 49.6,49.1 49.5,95.5 78.5,66.5 61.1,66.5 66.8,60.8 		"/>
	</g>
</g>
<g>
	<polygon points="163.7,94.5 174.4,94.5 174.4,77.9 195.4,77.9 195.4,69.4 174.4,69.4 174.4,57.3 198.2,57.3 198.2,48.9 163.7,48.9 
			"/>
	<path d="M246.7,74.1c0,4.3-0.9,7.4-2.7,9.4c-1.8,1.9-4.3,2.9-7.5,2.9s-5.6-1-7.4-2.9c-1.8-1.9-2.7-5.1-2.7-9.4V48.9h-10.6v25.5
		c0,6.7,1.8,11.9,5.5,15.5s8.7,5.4,15.2,5.4c6.4,0,11.5-1.8,15.1-5.4c3.7-3.6,5.5-8.8,5.5-15.5V48.9h-10.4L246.7,74.1L246.7,74.1z"
		/>
	<polygon points="314,55.7 314,48.9 275.6,48.9 275.6,57.5 300.2,57.5 275.1,87.7 275.1,94.5 315,94.5 315,85.9 289.1,85.9 	"/>
	<polygon points="371.4,55.7 371.4,48.9 333,48.9 333,57.5 357.5,57.5 332.4,87.7 332.4,94.5 372.3,94.5 372.3,85.9 346.4,85.9 	"/>
	<path d="M424.7,71.2c-0.4-0.2-0.8-0.3-1.2-0.5c1.8-0.9,3.2-2.2,4.3-3.8c1.2-1.8,1.8-3.8,1.8-6.2c0-3.6-1.4-6.4-4.3-8.6
		s-7.2-3.3-12.9-3.3h-22.3v45.6h23.6c6,0,10.5-1.1,13.6-3.3c3.1-2.2,4.6-5.2,4.6-9.2c0-2.7-0.6-4.9-1.9-6.7
		C428.6,73.5,426.9,72.1,424.7,71.2z M410.9,56.8c2.6,0,4.5,0.4,5.9,1.3c1.4,0.9,2.1,2.2,2.1,4s-0.7,3.2-2.1,4.1s-3.3,1.3-5.9,1.3
		h-10.5V56.8H410.9z M419,85.2c-1.4,0.9-3.5,1.4-6.2,1.4h-12.4V75.3h12.4c2.7,0,4.8,0.5,6.2,1.4c1.4,0.9,2.2,2.3,2.2,4.3
		C421.1,82.9,420.4,84.3,419,85.2z"/>
	<path d="M466.3,48.9L446,94.5h10.8l4.1-9.8H482l4.1,9.8h11.1l-20.5-45.6H466.3z M464.3,76.7l7.2-17.4l7.2,17.4H464.3z"/>
	<polygon points="524.4,48.9 513.8,48.9 513.8,94.5 547.2,94.5 547.2,85.9 524.4,85.9 	"/>
	<polygon points="575.6,85.9 575.6,48.9 564.9,48.9 564.9,94.5 598.3,94.5 598.3,85.9 	"/>
</g>
</svg>
