<?xml version="1.0" encoding="utf-8"?>
<!-- Generator: Adobe Illustrator 26.3.1, SVG Export Plug-In . SVG Version: 6.00 Build 0)  -->
<svg version="1.1" id="Layer_1" xmlns="http://www.w3.org/2000/svg" xmlns:xlink="http://www.w3.org/1999/xlink" x="0px" y="0px"
	 viewBox="0 0 612 792" style="enable-background:new 0 0 612 792;" xml:space="preserve">
<style type="text/css">
	.st0{fill:#229529;}
	.st1{fill:url(#SVGID_1_);}
	.st2{fill:#0080B7;}
</style>
<path class="st0" d="M223.1,449.6c-73.6,0-133.5-59.9-133.5-133.5s59.9-133.5,133.5-133.5s133.5,59.9,133.5,133.5
	S296.7,449.6,223.1,449.6z M223.1,186.4c-71.5,0-129.6,58.2-129.6,129.6s58.2,129.6,129.6,129.6s129.6-58.2,129.6-129.6
	S294.6,186.4,223.1,186.4z"/>
<radialGradient id="SVGID_1_" cx="223.6766" cy="316.0704" r="187.5773" gradientUnits="userSpaceOnUse">
	<stop  offset="0" style="stop-color:#0080B7"/>
	<stop  offset="0.2049" style="stop-color:#0784B9"/>
	<stop  offset="0.5087" style="stop-color:#1B8DBF"/>
	<stop  offset="0.78" style="stop-color:#3399C5"/>
	<stop  offset="0.8023" style="stop-color:#3A9DC7;stop-opacity:0.8987"/>
	<stop  offset="0.8356" style="stop-color:#4FA7CD;stop-opacity:0.7471"/>
	<stop  offset="0.8759" style="stop-color:#70B8D6;stop-opacity:0.5639"/>
	<stop  offset="0.9216" style="stop-color:#9FCFE4;stop-opacity:0.3562"/>
	<stop  offset="0.9712" style="stop-color:#D9ECF4;stop-opacity:0.1308"/>
	<stop  offset="1" style="stop-color:#FFFFFF;stop-opacity:0"/>
</radialGradient>
<path class="st1" d="M223.7,128.5c-103.6,0-187.6,84-187.6,187.6c0,103.6,84,187.6,187.6,187.6s187.6-84,187.6-187.6
	C411.3,212.5,327.3,128.5,223.7,128.5z M223.7,454.9c-53,0-99-29.7-122.4-73.3c-10.7-19.5-16.8-41.8-16.8-65.5
	c0-23.7,6.1-46,16.8-65.5c23.4-43.6,69.4-73.3,122.4-73.3s99,29.7,122.4,73.3c10.7,19.5,16.8,41.8,16.8,65.5
	c0,23.7-6.1,46-16.8,65.5C322.7,425.2,276.7,454.9,223.7,454.9z"/>
<polyline class="st0" points="262.7,331.7 247.1,347.3 200.1,347.4 169,378.6 294,378.6 294,331.7 278.4,316 294,300.4 294,257.4 
	294,253.5 215.8,331.7 "/>
<polygon class="st2" points="246.7,285 278.4,253.5 153.7,253.5 153.3,378.6 231.5,300.5 184.6,300.5 200.1,285 "/>
</svg>
