<?xml version="1.0" encoding="utf-8"?>
<!-- Generator: Adobe Illustrator 26.3.1, SVG Export Plug-In . SVG Version: 6.00 Build 0)  -->
<svg version="1.1" id="Layer_1" xmlns="http://www.w3.org/2000/svg" xmlns:xlink="http://www.w3.org/1999/xlink" x="0px" y="0px"
	 viewBox="0 0 612 792" style="enable-background:new 0 0 612 792;" xml:space="preserve">
<style type="text/css">
	.st0{fill:url(#SVGID_1_);}
	.st1{fill:#FFFFFF;}
	.st2{fill:#B9BBBD;}
</style>
<radialGradient id="SVGID_1_" cx="234.6" cy="415.4" r="193.4" gradientTransform="matrix(1 0 0 -1 0 792)" gradientUnits="userSpaceOnUse">
	<stop  offset="0" style="stop-color:#FFFFFF"/>
	<stop  offset="0.8529" style="stop-color:#FFFFFF;stop-opacity:0.1471"/>
	<stop  offset="1" style="stop-color:#FFFFFF;stop-opacity:0"/>
</radialGradient>
<path class="st0" d="M234.6,183.2c-106.7,0-193.4,86.7-193.4,193.4S127.9,570,234.6,570S428,483.3,428,376.6
	S341.5,183.2,234.6,183.2z M234.6,521.1c-79.7,0-144.5-64.6-144.5-144.5s64.6-144.5,144.5-144.5c79.7,0,144.5,64.6,144.5,144.5
	S314.5,521.1,234.6,521.1z"/>
<path class="st1" d="M234.6,514.3c-75.9,0-137.7-61.8-137.7-137.7s61.8-137.7,137.7-137.7s137.7,61.8,137.7,137.7
	S310.5,514.3,234.6,514.3z M234.6,243C160.8,243,101,303,101,376.6s60,133.6,133.6,133.6s133.6-60,133.6-133.6S308.4,243,234.6,243z
	"/>
<polygon class="st2" points="274.9,392.7 258.8,408.8 210.4,409 178.2,441.1 307.1,441.1 307.1,392.7 291,376.6 307.1,360.5 
	307.1,316.3 307.1,312.1 226.5,392.7 "/>
<polygon class="st1" points="258.4,344.5 291,312.1 162.6,312.1 162.1,441.1 242.7,360.7 194.3,360.7 210.4,344.5 "/>
</svg>
